<svg xmlns="http://www.w3.org/2000/svg" xmlns:xlink="http://www.w3.org/1999/xlink" width="24" height="24" viewBox="0 0 24 24">
    <defs>
        <path id="a" d="M12 3.875a3.758 3.758 0 0 0-3.75 3.75 3.758 3.758 0 0 0 3.75 3.75 3.758 3.758 0 0 0 3.75-3.75A3.758 3.758 0 0 0 12 3.875zm0 1.072a2.67 2.67 0 0 1 2.678 2.678A2.672 2.672 0 0 1 12 10.305a2.672 2.672 0 0 1-2.678-2.68A2.67 2.67 0 0 1 12 4.947zm0 7.678c-4.785 0-8.75 3.295-8.75 7.5H4.5c0-3.412 3.282-6.25 7.5-6.25s7.5 2.838 7.5 6.25h1.25c0-4.205-3.965-7.5-8.75-7.5z"/>
    </defs>
    <g fill="none" fill-rule="evenodd">
        <mask id="b" fill="#fff">
            <use xlink:href="#a"/>
        </mask>
        <g fill="#333" mask="url(#b)">
            <path d="M0 0h24v24H0z"/>
        </g>
    </g>
</svg>
