<svg xmlns="http://www.w3.org/2000/svg" width="1172" height="120" viewBox="0 0 1172 120">
    <g fill="#000" fill-rule="nonzero" opacity=".077">
        <path d="M387.378 41.21a.474.474 0 0 0-.542.394l-.445 2.806a.474.474 0 0 0 .394.542l1.871.297a.474.474 0 0 0 .542-.394l.444-2.807a.474.474 0 0 0-.393-.542l-1.871-.296zm.958 3.029l-.935-.148.296-1.871.936.148-.297 1.87z"/>
        <path d="M374.326 44.897a.474.474 0 0 0 .542-.394l1.111-7.017 20.583 3.26-1.111 7.017a.474.474 0 0 0 .935.149l1.186-7.485a.474.474 0 0 0-.394-.542l-10.76-1.704.445-2.807 2.34.37-.149.936-1.403-.222a.474.474 0 0 0-.148.935l1.87.297a.474.474 0 0 0 .543-.394l.296-1.871a.474.474 0 0 0-.394-.542l-3.274-.519a.474.474 0 0 0-.542.394l-.519 3.275-9.823-1.556a.474.474 0 0 0-.542.393l-1.186 7.485a.474.474 0 0 0 .394.542z"/>
        <path d="M392.055 41.95a.474.474 0 0 0-.541.394l-.445 2.807a.474.474 0 0 0 .394.542l1.87.296a.474.474 0 0 0 .543-.393l.444-2.807a.474.474 0 0 0-.393-.542l-1.872-.296zm.96 3.03l-.936-.148.296-1.872.936.149-.297 1.87zM396.28 63.719l-27.132-4.297a.474.474 0 0 0-.148.935l27.132 4.298a.474.474 0 0 0 .148-.936zM386.433 59.282a.474.474 0 0 0 .542-.393l1.037-6.55a.472.472 0 0 0-.084-.352c-.037-.05-.932-1.247-3.436-1.644-2.503-.396-3.724.465-3.775.502a.472.472 0 0 0-.19.309l-1.036 6.55a.474.474 0 0 0 .935.147l1.002-6.322c.317-.152 1.122-.434 2.446-.307l-.738 4.66a.474.474 0 0 0-.149.936l-.222 1.404a.474.474 0 0 0 .936.148l.222-1.403a.474.474 0 0 0 .148-.936l.738-4.66c1.301.288 1.98.807 2.232 1.046l-1.001 6.323a.474.474 0 0 0 .393.542zM377.323 59.278a.474.474 0 0 0 .394.542l10.291 1.63a.474.474 0 0 0 .148-.936l-10.291-1.63a.474.474 0 0 0-.542.394z"/>
        <path d="M371.316 57.847a.474.474 0 0 0-.148.935l4.678.741a.474.474 0 0 0 .148-.935l-.468-.074 1.778-11.227 14.97 2.37-1.779 11.228-.468-.074a.474.474 0 0 0-.148.935l4.678.741a.474.474 0 0 0 .148-.936l-.467-.074 1.778-11.227.468.075a.474.474 0 0 0 .148-.936l-23.39-3.705a.474.474 0 0 0-.148.936l.468.074-1.778 11.227-.468-.074zm21.893-8.041l1.871.296-1.778 11.227-1.871-.296 1.778-11.227zm-18.712-2.964l1.872.297-1.779 11.227-1.87-.297 1.777-11.227zM378.022 39.728a.474.474 0 0 0-.542.394l-.445 2.807a.474.474 0 0 0 .394.541l1.871.297a.474.474 0 0 0 .542-.394l.445-2.807a.474.474 0 0 0-.394-.542l-1.871-.296zm.959 3.03l-.936-.15.296-1.87.936.148-.296 1.871zM382.7 40.469a.474.474 0 0 0-.542.394l-.445 2.806a.474.474 0 0 0 .394.542l1.871.297a.474.474 0 0 0 .542-.394l.445-2.807a.474.474 0 0 0-.394-.542l-1.871-.296zm.959 3.029l-.936-.148.296-1.871.936.148-.296 1.871zM337.834 21.888a.506.506 0 0 0-.348.626l.575 2.011a.507.507 0 1 0 .976-.278l-.576-2.011a.508.508 0 0 0-.627-.348zM327.375 16.193a.503.503 0 0 0 .148-.13l3.678-4.79a.507.507 0 0 0-.805-.618l-3.55 4.623-15.24 2.012-.084-.146a.507.507 0 0 0-.879.508l.254.439a.507.507 0 0 0 .506.25l15.785-2.085a.502.502 0 0 0 .187-.063zM335.2 17.676a.507.507 0 0 0-.704.14c-.596.895-1.712 2.18-3.645 3.382l-2.276-3.94a.507.507 0 0 0-.879.506l2.274 3.938c-5.556 2.975-9.225.687-9.795.283l-1.723-2.984a.507.507 0 0 0-.879.507l1.776 3.076a.513.513 0 0 0 .125.145c.187.146 4.643 3.546 11.452-.386 2.38-1.374 3.714-2.914 4.414-3.964a.506.506 0 0 0-.14-.703zM339.292 21.614a.507.507 0 0 0-.186.693l.76 1.318a.507.507 0 1 0 .88-.507l-.762-1.318a.507.507 0 0 0-.692-.186z"/>
        <path d="M336.31 2.247a.507.507 0 0 0-.185.693l.084.145-4.02 5.213-.458-.794 4.475-5.827a.507.507 0 0 0-.469-.812l-15.785 2.084a.508.508 0 0 0-.336.194L309.92 15.77a.507.507 0 0 0 .47.812l15.784-2.084a.502.502 0 0 0 .336-.194l3.506-4.566a.507.507 0 1 0-.804-.618l-3.38 4.4-14.36 1.896 8.822-11.49 14.362-1.896-3.84 5-5.872.985a1.211 1.211 0 0 0-.123-.307c-.427-.739-1.533-.872-2.518-.303-.986.569-1.423 1.594-.997 2.332.427.74 1.533.873 2.519.304.44-.254.762-.6.956-.97l6.094-1.022.813 1.407 5.436 9.416a1.52 1.52 0 0 0-.164 1.745c.42.726 1.352.976 2.079.557.727-.42.977-1.352.557-2.08a1.52 1.52 0 0 0-1.593-.729l-1.44-2.494c.712-1.68.432-3.209.42-3.277a.513.513 0 0 0-.06-.157l-1.775-3.076a.507.507 0 1 0-.879.508l1.729 2.994c.031.23.099.957-.112 1.834l-3.147-5.45 4.482-5.813a.507.507 0 0 0 .037-.563l-.253-.44a.507.507 0 0 0-.693-.185zm-12.994 6.916c-.536.31-1.029.247-1.132.068-.104-.18.088-.637.625-.946.536-.31 1.029-.248 1.132-.068.104.179-.088.637-.625.946zm15.215 11.133a.508.508 0 1 1-.507-.88.508.508 0 0 1 .507.88zM340.974 20.5a.507.507 0 1 0-.729.706l1.454 1.504a.507.507 0 0 0 .729-.706l-1.454-1.504z"/>
        <g>
            <path d="M35.123 14.976a.474.474 0 0 0 .636.206c.028-.014 2.81-1.427 4.183-1.86a.473.473 0 0 0-.286-.903c-1.445.457-4.209 1.861-4.326 1.92a.473.473 0 0 0-.207.637zM35.545 9.561a.472.472 0 0 0 .214-.051c.028-.014 2.81-1.428 4.183-1.861a.473.473 0 0 0-.286-.902c-1.445.457-4.209 1.86-4.326 1.92a.473.473 0 0 0 .215.894z"/>
            <path d="M46.89 8.616a.473.473 0 0 0-.473.473v18.435a1.42 1.42 0 0 1-1.418 1.418H33.654v-1.088c.689-.24 2.484-.803 4.254-.803 4.118 0 6.914.912 6.942.921a.475.475 0 0 0 .621-.448V6.725a.472.472 0 0 0-.37-.461s-.37-.083-1.004-.2a.473.473 0 0 0-.171.93c.242.045.444.084.6.115v19.787c-1.071-.281-3.45-.79-6.618-.79-2.06 0-4.083.676-4.709.905-.556-.245-2.238-.905-4.272-.905-3.256 0-5.938.537-7.09.81V7.09a31.114 31.114 0 0 1 7.09-.839c1.723 0 3.201.537 3.781.78v18.601a.473.473 0 0 0 .716.405c.047-.028 4.73-2.825 8.888-4.21a.473.473 0 0 0 .323-.45V1.999a.473.473 0 0 0-.64-.443c-3.781 1.419-7.608 3.8-7.646 3.824a.473.473 0 0 0 .5.802c.036-.023 3.365-2.094 6.84-3.492V21.04c-3.226 1.122-6.595 2.952-8.035 3.772V6.725a.473.473 0 0 0-.262-.423c-.081-.04-2.018-.995-4.465-.995-4.272 0-7.555.924-7.693.964a.472.472 0 0 0-.343.454v20.799a.475.475 0 0 0 .602.454c.033-.009 3.301-.927 7.434-.927 1.728 0 3.205.538 3.781.78v1.11H21.364a1.42 1.42 0 0 1-1.419-1.417V9.089a.473.473 0 0 0-.945 0v18.435a2.366 2.366 0 0 0 2.364 2.363h23.635a2.366 2.366 0 0 0 2.363-2.363V9.089a.473.473 0 0 0-.473-.473z"/>
            <path d="M35.123 12.14a.474.474 0 0 0 .636.206c.028-.014 2.81-1.428 4.183-1.861a.473.473 0 0 0-.286-.902c-1.445.457-4.209 1.861-4.326 1.92a.473.473 0 0 0-.207.636zM35.123 17.812a.474.474 0 0 0 .636.206c.028-.014 2.81-1.427 4.183-1.86a.473.473 0 0 0-.286-.903c-1.445.457-4.209 1.861-4.326 1.92a.473.473 0 0 0-.207.637zM30.453 10.298c-2.92-.685-6.236.187-6.376.225a.473.473 0 0 0 .245.913c.032-.009 3.226-.849 5.915-.218a.473.473 0 1 0 .215-.92zM30.453 13.134c-2.92-.685-6.236.188-6.376.225a.473.473 0 0 0 .245.913c.032-.009 3.226-.849 5.915-.218a.473.473 0 1 0 .215-.92zM35.123 20.648a.474.474 0 0 0 .636.206c.028-.014 2.81-1.427 4.183-1.86a.473.473 0 0 0-.286-.902c-1.445.457-4.209 1.86-4.326 1.92a.473.473 0 0 0-.207.636zM30.453 15.97c-2.92-.684-6.236.187-6.376.225a.473.473 0 0 0 .245.913c.032-.009 3.226-.849 5.915-.218a.473.473 0 1 0 .215-.92zM30.453 21.642c-2.92-.684-6.236.188-6.376.226a.473.473 0 0 0 .245.913c.032-.01 3.226-.85 5.915-.218a.473.473 0 1 0 .215-.92zM30.453 18.806c-2.92-.685-6.236.187-6.376.225a.473.473 0 0 0 .245.914c.032-.01 3.226-.85 5.915-.218a.473.473 0 1 0 .215-.92z"/>
        </g>
        <g>
            <path d="M269.133 20.526l-5.742-3.315a2.37 2.37 0 0 0-3.235.867l-8.525 14.766a.473.473 0 0 0 .173.647l2.461 1.42a.473.473 0 1 0 .474-.82l-2.051-1.184.474-.82.41.237a.473.473 0 1 0 .473-.82l-.41-.237.474-.82.41.236a.473.473 0 1 0 .474-.82l-.41-.237.473-.82.41.236a.473.473 0 1 0 .474-.82l-.41-.237.473-.82 2.051 1.184a.473.473 0 1 0 .474-.82l-2.051-1.184.474-.82.41.236a.473.473 0 1 0 .473-.82l-.41-.237.474-.82.41.236a.473.473 0 1 0 .474-.82l-.41-.237.473-.82.41.237a.473.473 0 1 0 .474-.82l-.41-.237.473-.82 2.051 1.183a.473.473 0 1 0 .474-.82l-2.051-1.184.71-1.23a1.423 1.423 0 0 1 1.941-.52l5.743 3.315c.678.391.911 1.262.52 1.94l-11.84 20.51a1.423 1.423 0 0 1-1.942.52L249.656 41a1.423 1.423 0 0 1-.52-1.941l2.368-4.102a.473.473 0 1 0-.82-.473l-2.368 4.101a2.37 2.37 0 0 0 .866 3.235l5.743 3.315a2.37 2.37 0 0 0 3.235-.866L270 23.76a2.37 2.37 0 0 0-.867-3.235zM253.34 18.517l-8.525 14.766a.473.473 0 1 0 .82.474l8.526-14.766a.473.473 0 1 0-.82-.474z"/>
            <path d="M257.065 13.86c.021-.358-.434-.62-.734-.423l-3.535 2.334a.475.475 0 0 0-.15.158l-10.892 18.868a2.37 2.37 0 0 0 .866 3.235 2.37 2.37 0 0 0 3.235-.867l.474-.82a.473.473 0 0 0-.173-.647l-1.641-.947a.473.473 0 1 0-.474.82l1.23.71-.236.41a1.423 1.423 0 0 1-1.941.52 1.423 1.423 0 0 1-.52-1.94L253.41 16.5l2.652-1.75-.151 2.517-.977-.564a.473.473 0 1 0-.474.82l1.23.711-9.235 15.997a.473.473 0 1 0 .82.473l9.472-16.406.004-.007a.478.478 0 0 0 .06-.211l.253-4.22zM256.062 40.324a1.896 1.896 0 0 0-.693-2.588 1.896 1.896 0 0 0-2.588.694 1.896 1.896 0 0 0 .693 2.588 1.896 1.896 0 0 0 2.588-.694zm-2.46-1.42a.948.948 0 0 1 1.64.947.948.948 0 0 1-1.64-.948zM264.33 44.003a.473.473 0 1 0-.474.82l3.28 1.895a.473.473 0 0 0 .648-.173l1.42-2.461a2.37 2.37 0 0 0-.866-3.235l-1.64-.947a2.37 2.37 0 0 0-3.236.866l-2.841 4.923a2.37 2.37 0 0 0 .866 3.234l1.641.948a2.37 2.37 0 0 0 3.235-.867l.474-.82a.473.473 0 1 0-.82-.474l-.474.82a1.423 1.423 0 0 1-1.941.52l-1.64-.947a1.423 1.423 0 0 1-.521-1.94l2.842-4.923a1.423 1.423 0 0 1 1.94-.52l1.641.947c.679.392.912 1.263.52 1.941l-1.184 2.051-2.87-1.658z"/>
        </g>
        <g>
            <path d="M160.992 22.554h1.894a.473.473 0 1 0 0-.947h-1.894a.473.473 0 1 0 0 .947zM159.097 19.712a.473.473 0 1 0 0-.947h-1.894a.473.473 0 0 0-.474.474v3.789c0 .261.212.473.474.473h1.894a.473.473 0 1 0 0-.947h-1.42v-.947h1.42a.473.473 0 1 0 0-.947h-1.42v-.948h1.42zM166.201 31.08a.473.473 0 0 0-.473.473v1.225l-3.177 3.176a.473.473 0 1 0 .67.67l3.315-3.316a.475.475 0 0 0 .139-.334v-1.421a.473.473 0 0 0-.474-.474zM167.957 34.06a.473.473 0 1 0-.67.67l1.895 1.894a.472.472 0 0 0 .67 0 .473.473 0 0 0 0-.67l-1.895-1.894z"/>
            <path d="M179.936 9.293h-13.261v-.474a.473.473 0 1 0-.947 0v.474h-13.262a.474.474 0 0 0-.473.473v1.895c0 .261.211.473.473.473h24.629a.473.473 0 1 0 0-.947H152.94v-.947h26.523v.947h-.474a.473.473 0 0 0-.473.474v16.103c0 .783-.638 1.42-1.421 1.42h-21.787c-.783 0-1.42-.637-1.42-1.42V13.555a.473.473 0 1 0-.948 0v14.209a2.37 2.37 0 0 0 2.368 2.368h21.787a2.37 2.37 0 0 0 2.368-2.368v-15.63h.473a.473.473 0 0 0 .474-.473V9.766a.473.473 0 0 0-.474-.473z"/>
            <path d="M175.674 19.239c0-.784-.638-1.421-1.421-1.421s-1.42.637-1.42 1.42a.473.473 0 1 0 .946 0 .474.474 0 0 1 .948 0c-.012.146-.381.541-.758.806l-.947.71a.473.473 0 0 0 .284.853h1.894a.473.473 0 1 0 0-.947h-.472c.362-.287.946-.84.946-1.421zM170.464 19.712c.261 0 .474.213.474.474a.473.473 0 1 0 .947 0c0-.784-.638-1.421-1.421-1.421s-1.42.637-1.42 1.42v1.895c0 .784.637 1.421 1.42 1.421.783 0 1.42-.637 1.42-1.42a.473.473 0 1 0-.946 0 .474.474 0 0 1-.948 0v-1.895c0-.261.213-.474.474-.474zM167.622 23.501a.473.473 0 0 0 .474-.473v-3.79a.474.474 0 0 0-.853-.284l-1.042 1.39-1.042-1.39a.473.473 0 0 0-.852.285v3.789a.473.473 0 1 0 .947 0v-2.369l.569.758a.49.49 0 0 0 .757 0l.569-.758v2.369c0 .261.211.473.473.473zM160.992 20.66h1.894a.473.473 0 1 0 0-.948h-1.894a.473.473 0 1 0 0 .947z"/>
        </g>
        <g>
            <path d="M564.48 53.036a.473.473 0 0 0 .587-.323c1.402-4.818 5.89-8.183 10.915-8.183.804 0 1.604.084 2.382.25-.017.682.278 1.15.467 1.45l.133.212c0 1.698-.348 1.975-.344 1.976-.768 0-2.027.686-2.501 1.57-.29.542-.267 1.116.066 1.616.228.343.425.724.615 1.092.403.78.85 1.645 1.55 1.645.149 0 .309-.04.482-.126.553-.276.949-1.061 1.331-1.82.169-.334.417-.825.563-.981.481.065.716.5 1.034 1.189.234.507.476 1.03.951 1.268.8.4 3.433-.02 4.887-.637a.474.474 0 0 0 .272-.56 12.386 12.386 0 0 0-7.224-8.177.474.474 0 1 0-.359.876 11.443 11.443 0 0 1 6.55 7.14c-1.474.52-3.366.677-3.702.51-.178-.089-.357-.476-.515-.817-.33-.715-.783-1.695-1.937-1.746-.597-.036-.933.65-1.366 1.509-.254.503-.637 1.263-.942 1.413-.176-.041-.525-.717-.733-1.12-.193-.374-.411-.797-.67-1.183-.139-.21-.145-.408-.018-.644.325-.607 1.302-1.07 1.666-1.07.856 0 1.29-.983 1.29-2.923 0-.276-.14-.5-.277-.718-.201-.317-.408-.647-.285-1.208a.474.474 0 0 0-.347-.56 12.364 12.364 0 0 0-3.019-.373c-5.443 0-10.305 3.646-11.825 8.866a.473.473 0 0 0 .323.587zM581.664 56.143c-.137.039-.324.093-.374.097-.655 0-1.07.507-1.372.876-.116.142-.324.395-.458.399a1.484 1.484 0 0 0-.668-.161c-.559 0-1.042.332-1.15.79-.077.322.036.763.578 1.035.77.384 1.564.782 1.918 1.135.244.244.665.384 1.156.384.746 0 1.738-.363 2.078-1.385.134-.402.456-.71.767-1.008.361-.346.703-.672.707-1.14.004-.277-.119-.542-.363-.786-.333-.333-.787-.502-1.348-.502-.54 0-1.078.154-1.471.266zm2.235 1.008c-.022.094-.258.32-.415.47-.357.342-.802.768-1.01 1.393-.234.7-1.024.736-1.18.736-.276 0-.45-.073-.486-.105-.463-.463-1.29-.877-2.165-1.314l-.005-.002a.528.528 0 0 1 .399.033c.153.077.31.116.466.116.525 0 .856-.405 1.148-.762.213-.26.433-.529.639-.529.168 0 .364-.056.634-.133.358-.102.804-.23 1.21-.23.306 0 .528.074.678.224.066.067.084.103.087.103z"/>
            <path d="M588.179 54.193a.474.474 0 0 0-.938.13c.072.52.108 1.05.108 1.574 0 6.222-5.025 11.292-11.23 11.366-1.685-1.076-3.263-2.393-2.56-4.034 1.263-2.947.088-4.046-.414-4.515l-.095-.09a2.24 2.24 0 0 0-.448-.326c-.346-.208-.44-.264-.254-.822.124-.371.288-.544.476-.745.439-.463.773-.924.773-2.263 0-.78-.395-1.401-1.085-1.706-.782-.346-1.826-.223-2.378.278-.345.313-.461.74-.318 1.17.338 1.01-.434 2.472-1.876 3.554-.381.286-.495.154-.563.076-.423-.487-.39-1.873-.043-2.22.232-.233.301-.53.184-.794-.383-.87-2.83-.803-3.316-.78a.474.474 0 0 0-.448.415c-.06.49-.086.92-.086 1.436a12.286 12.286 0 0 0 9.35 11.955.474.474 0 0 0 .228-.92 11.34 11.34 0 0 1-8.594-11.95c.801-.001 1.482.092 1.829.198-.543.848-.484 2.516.18 3.281.476.549 1.167.571 1.848.06 1.82-1.364 2.685-3.175 2.206-4.61-.016-.048-.03-.092.056-.17.25-.227.884-.323 1.358-.113.35.155.521.43.521.84 0 1.069-.215 1.297-.514 1.613-.22.234-.496.525-.686 1.095-.426 1.28.257 1.69.665 1.934a1.465 1.465 0 0 1 .383.296c.417.389 1.191 1.114.19 3.45-1.134 2.647 1.792 4.494 3.041 5.282a.478.478 0 0 0 .253.073c6.79 0 12.314-5.524 12.314-12.314 0-.568-.039-1.14-.117-1.704z"/>
            <path d="M583.897 66.539a13.15 13.15 0 0 1-7.915 2.62c-7.312 0-13.261-5.95-13.261-13.262a.474.474 0 0 0-.947 0c0 7.676 6.119 13.945 13.735 14.197v1.432a.474.474 0 0 0 .947 0v-1.44a14.069 14.069 0 0 0 8.007-2.788.474.474 0 0 0-.566-.76z"/>
            <path d="M576.344 62.772c-.59 0-1.284.68-1.537 1.291-.197.477-.139.922.162 1.222.282.283.702.445 1.151.445.449 0 .869-.162 1.152-.445.314-.314.391-.777.216-1.301a2.7 2.7 0 0 0-.625-1.002.728.728 0 0 0-.519-.21zm.258 1.843c-.21.21-.757.204-.961.005-.007-.02-.007-.139.119-.346.163-.27.394-.46.52-.528.134.16.25.36.31.537.052.157.057.288.012.332z"/>
        </g>
        <g>
            <path d="M485.145 64.422h2.842a.474.474 0 0 0 0-.947h-2.842a.474.474 0 0 0 0 .947zM485.145 67.264h5.684a.474.474 0 0 0 0-.947h-5.684a.474.474 0 0 0 0 .947zM486.995 56.933a.959.959 0 0 1 .43.445.473.473 0 1 0 .859-.4 1.913 1.913 0 0 0-.859-.89.475.475 0 0 0-.43.845zM495.091 63.948a.473.473 0 0 0-.473-.473h-4.736a.474.474 0 0 0 0 .947h4.736a.473.473 0 0 0 .473-.474zM486.995 48.42a.955.955 0 0 1 .43.446.473.473 0 1 0 .859-.4 1.908 1.908 0 0 0-.859-.89.474.474 0 0 0-.43.844z"/>
            <path d="M483.546 51.545c-.346.338-.769.96-.769 1.984 0 1.023.423 1.645.769 1.984a3.765 3.765 0 0 0 .178 4.776v1.765a.474.474 0 0 0 .948 0v-.987a3.756 3.756 0 0 0 1.894.513c2.09 0 3.79-1.7 3.79-3.789 0-2.089-1.7-3.789-3.79-3.789-.893 0-1.714.313-2.362.832-.204-.201-.48-.602-.48-1.305 0-.704.276-1.104.48-1.306.648.52 1.469.832 2.362.832 2.09 0 3.79-1.7 3.79-3.789 0-2.089-1.7-3.789-3.79-3.789a3.76 3.76 0 0 0-1.894.513v-1.46h12.591l4.598 4.597a.472.472 0 0 0 .67 0 .473.473 0 0 0 0-.67l-4.737-4.736a.472.472 0 0 0-.335-.138h-13.261a.474.474 0 0 0-.474.473v2.712a3.769 3.769 0 0 0-.178 4.777zm3.02-5.12a2.845 2.845 0 0 1 2.842 2.841 2.845 2.845 0 0 1-2.842 2.842 2.845 2.845 0 0 1-2.842-2.842 2.845 2.845 0 0 1 2.842-2.842zm0 8.525a2.845 2.845 0 0 1 2.842 2.841 2.845 2.845 0 0 1-2.842 2.842 2.845 2.845 0 0 1-2.842-2.842 2.845 2.845 0 0 1 2.842-2.841zM499.828 63.948a.473.473 0 0 0-.474-.473h-2.842a.473.473 0 1 0 0 .947h2.842a.473.473 0 0 0 .474-.474z"/>
            <path d="M499.354 54.95h-3.79a.473.473 0 1 0 0 .947h3.79a.473.473 0 1 0 0-.947zM492.723 67.264h4.736a.473.473 0 1 0 0-.947h-4.736a.474.474 0 0 0 0 .947z"/>
            <path d="M504.09 50.213h-4.736c-.783 0-1.42-.637-1.42-1.42v-2.369a.473.473 0 1 0-.948 0v2.369a2.37 2.37 0 0 0 2.368 2.368h4.263v18.47c0 .798-.624 1.422-1.421 1.422h-19.892c-.784 0-1.421-.638-1.421-1.421V45.95c0-.784.637-1.421 1.42-1.421a.474.474 0 0 0 0-.947 2.37 2.37 0 0 0-2.368 2.368v23.68A2.37 2.37 0 0 0 482.304 72h19.892a2.343 2.343 0 0 0 2.368-2.368V50.687a.474.474 0 0 0-.474-.474z"/>
            <path d="M490.829 61.107c0 .261.212.473.473.473h7.105a.473.473 0 1 0 0-.947h-7.105a.474.474 0 0 0-.473.474zM491.776 58.265c0 .261.212.474.474.474h2.368a.473.473 0 1 0 0-.948h-2.368a.474.474 0 0 0-.474.474zM498.407 58.739a.473.473 0 1 0 0-.948h-1.895a.473.473 0 1 0 0 .948h1.895zM493.67 54.95h-1.894a.474.474 0 0 0 0 .947h1.894a.473.473 0 1 0 0-.947z"/>
        </g>
        <g>
            <path d="M535.022 13.9a.473.473 0 0 0-.473-.473h-2.836a.473.473 0 0 0 0 .946h2.836c.26 0 .473-.212.473-.473zM533.13 1.61V-.754a.473.473 0 0 0-.945 0V1.61a2.366 2.366 0 0 0 2.364 2.363h4.254v8.982a.473.473 0 0 0 .946 0V3.5a.473.473 0 0 0-.473-.473h-4.727a1.42 1.42 0 0 1-1.418-1.418zM534.549 7.755h-3.782a.473.473 0 0 0 0 .945h3.782a.473.473 0 0 0 0-.945zM529.35 8.228a.473.473 0 0 0-.473-.473h-2.837a.473.473 0 0 0 0 .945h2.837c.26 0 .472-.212.472-.472zM526.04 10.591a.473.473 0 0 0 0 .945h.946a.473.473 0 0 0 0-.945h-.946zM526.04 5.864h4.727a.473.473 0 0 0 0-.945h-4.727a.473.473 0 0 0 0 .945zM528.876 11.536h4.727a.473.473 0 0 0 0-.945h-4.727a.473.473 0 0 0 0 .945zM531.713 16.263a.473.473 0 0 0 0 .946h.945a.473.473 0 0 0 0-.946h-.945zM529.822 13.427h-3.782a.473.473 0 0 0 0 .946h3.782a.473.473 0 0 0 0-.946zM529.822 16.263h-3.782a.473.473 0 0 0 0 .946h3.782a.473.473 0 0 0 0-.946zM541.076 15.881l-.945-.945a1.776 1.776 0 0 0-2.56 0l-6.193 6.193a.473.473 0 0 0-.138.334V24.3c0 .261.212.473.473.473h2.836c.125 0 .246-.05.334-.139l6.193-6.193c.753-.753.753-1.806 0-2.559zm-4.115 1.003l.75.75-4.108 4.106-.75-.75 4.108-4.106zm-4.776 6.943v-2.168l2.168 2.168h-2.168zm2.837-.669l-.75-.75 4.107-4.106.75.75-4.107 4.106zm5.386-5.386l-.611.611-2.168-2.168.611-.611c.374-.373.847-.375 1.223 0l.945.945c.382.383.382.84 0 1.223z"/>
            <path d="M529.822 23.827h-12.29a1.42 1.42 0 0 1-1.418-1.419V-1.226a1.42 1.42 0 0 1 1.418-1.419h14.93l4.589 4.589a.472.472 0 1 0 .668-.668l-4.727-4.727a.472.472 0 0 0-.334-.139h-15.126a2.366 2.366 0 0 0-2.364 2.364v23.634a2.366 2.366 0 0 0 2.364 2.364h12.29a.473.473 0 0 0 0-.945z"/>
            <path d="M529.822 19.1h-3.782a.473.473 0 0 0 0 .945h3.782a.473.473 0 0 0 0-.945zM523.677 5.391a.473.473 0 0 0-.473-.472h-2.836a.473.473 0 0 0-.473.472v2.837c0 .26.212.472.473.472h2.836c.261 0 .473-.212.473-.472V5.39zm-.946 2.364h-1.89V5.864h1.89v1.89zM520.368 20.045h2.836c.261 0 .473-.212.473-.473v-2.836a.473.473 0 0 0-.473-.473h-2.836a.473.473 0 0 0-.473.473v2.836c0 .261.212.473.473.473zm.473-2.836h1.89v1.89h-1.89v-1.89zM520.98 14.234a.473.473 0 0 0 .727-.072l1.89-2.836a.473.473 0 0 0-.786-.525l-1.57 2.357-.539-.538a.472.472 0 1 0-.668.669l.945.945z"/>
        </g>
        <g>
            <path d="M88.543 39.482l10.975-.492a.525.525 0 0 0 .12-.022l9.967-3.13.285 1.62c-.234.38-.73 1.314-.572 2.212.181 1.027 1.084 1.252 1.646 1.152.563-.099 1.334-.619 1.153-1.646-.158-.897-.943-1.605-1.294-1.882l-.38-2.15a.469.469 0 0 0-.065-.169c-.011-.017-.027-.03-.04-.046a.468.468 0 0 0-.078-.08c-.02-.015-.041-.023-.062-.034a.445.445 0 0 0-.094-.042c-.025-.008-.05-.008-.076-.01-.024-.004-.047-.012-.072-.011l-10.974.492a.53.53 0 0 0-.12.022l-10.482 3.29a.474.474 0 0 0 .163.926zm22.641-.141c.066.372-.171.504-.384.549-.215.03-.483-.012-.549-.385-.068-.387.094-.86.266-1.22.285.279.599.669.667 1.056zm-12.098-3.153l7.285-.327-6.958 2.185-7.285.327 6.958-2.185zM104.187 48.75a1.89 1.89 0 0 0 1.555-1.938l1.48-1.578a.473.473 0 1 0-.692-.648l-1.031 1.102a1.418 1.418 0 0 0-1.504-.751l-1.866.329a1.423 1.423 0 0 0-1.152 1.646 1.423 1.423 0 0 0-1.646-1.153l-1.866.33c-.627.11-1.079.619-1.156 1.219l-1.346-.682a.474.474 0 0 0-.428.845l1.93.977a1.89 1.89 0 0 0 2.124 1.29l.933-.165a1.896 1.896 0 0 0 1.537-2.195 1.896 1.896 0 0 0 2.195 1.537l.933-.164zm-4.06-1.207a.949.949 0 0 1-.77 1.097l-.932.165a.948.948 0 0 1-1.097-.769l-.083-.466a.474.474 0 0 1 .384-.549l1.866-.329a.474.474 0 0 1 .549.384l.082.467zm1.865-.33l-.082-.466a.474.474 0 0 1 .384-.548l1.865-.33a.474.474 0 0 1 .55.385l.081.466a.948.948 0 0 1-.768 1.098l-.933.164a.948.948 0 0 1-1.097-.768zM110.539 57.612a.5.5 0 0 0-.055-.087c-.012-.015-.017-.033-.03-.047-.006-.006-.015-.008-.02-.015a.462.462 0 0 0-.082-.055c-.026-.017-.051-.033-.08-.044-.01-.003-.015-.01-.025-.013l-2.03-.603a.473.473 0 0 0-.462.11l-2.47 2.36a.474.474 0 0 0-.14.425l.292 1.654c-.238.27-.84.847-1.746 1.007-.898.158-1.667-.179-1.986-.35l-.291-1.653a.474.474 0 0 0-.276-.352l-3.128-1.372a.473.473 0 0 0-.472.053l-1.701 1.262c-.008.006-.011.014-.018.02a.419.419 0 0 0-.065.072c-.02.024-.04.048-.053.076-.004.008-.012.014-.016.022-.008.019-.007.038-.012.058a.487.487 0 0 0-.021.096c-.003.03 0 .059.004.089.003.03.007.058.016.087.01.032.025.06.041.09.01.017.013.036.025.053.006.007.015.011.02.018.02.024.046.044.072.064.025.02.048.04.076.054.008.004.014.011.022.015l3.128 1.373a.472.472 0 0 0 .624-.244.473.473 0 0 0-.243-.624l-2.38-1.044.824-.612 2.644 1.16.285 1.616a.472.472 0 0 0 .195.306c.051.036 1.276.877 2.85.6 1.575-.278 2.438-1.488 2.474-1.54.072-.102.1-.23.078-.353l-.285-1.616 2.088-1.994.984.292-1.88 1.796a.473.473 0 1 0 .655.685l2.47-2.36c.006-.006.009-.014.015-.02.023-.025.039-.053.056-.081.016-.027.032-.052.042-.08.004-.01.011-.016.014-.026.006-.02.003-.041.006-.062.004-.031.01-.06.008-.092a.45.45 0 0 0-.016-.093c-.007-.028-.013-.054-.025-.08z"/>
            <path d="M112.178 55.696a.474.474 0 0 0 .806-.5c-.013-.02-1.302-2.12-1.692-4.332l-.658-3.731c-.7-3.974-2.925-4.679-3.02-4.707a.472.472 0 0 0-.6.536l.328 1.866c.311 1.764-.4 5.625-.702 6.641-.27.911-2.02 3.938-4.1 4.305-2.082.367-4.76-1.879-5.327-2.642-.63-.852-2.62-4.238-2.93-6.002l-.33-1.865a.474.474 0 0 0-.748-.298c-.08.058-1.928 1.482-1.228 5.455l.658 3.732c.39 2.21-.102 4.626-.108 4.65a.473.473 0 0 0 .928.193c.022-.105.535-2.613.113-5.008l-.658-3.731c-.333-1.891-.034-3.077.3-3.76l.14.797c.353 2.002 2.5 5.588 3.102 6.4.768 1.036 3.756 3.452 6.252 3.012 2.496-.44 4.477-3.732 4.844-4.968.29-.97 1.08-5.074.727-7.076l-.14-.795c.547.527 1.233 1.539 1.567 3.43l.657 3.73c.423 2.395 1.763 4.576 1.82 4.668z"/>
            <path d="M102.98 51.985c-.013.016-.308.4-1.016.524-.699.123-1.105-.127-1.133-.145a.473.473 0 0 0-.538.78c.072.05.74.49 1.835.298 1.095-.193 1.572-.836 1.623-.908a.47.47 0 0 0-.112-.652.477.477 0 0 0-.66.103zM117.716 60.16c-.063-.117-1.598-2.866-5.706-3.156a.473.473 0 1 0-.066.945c3.568.252 4.886 2.565 4.94 2.662a.473.473 0 1 0 .832-.451zM107.617 40.932l-.576-3.265a.473.473 0 1 0-.932.164l.522 2.963c-.714.463-2.995 1.802-6.312 2.387-3.317.584-5.919.107-6.748-.084l-.522-2.963a.473.473 0 1 0-.933.165l.576 3.265c.03.176.159.32.331.372.129.037 3.201.928 7.46.177 4.26-.75 6.842-2.639 6.95-2.718a.474.474 0 0 0 .184-.463zM94.06 60.17c-3.76 1.677-4.262 4.785-4.281 4.916a.474.474 0 1 0 .936.139c.004-.027.44-2.723 3.73-4.19a.474.474 0 0 0-.385-.866z"/>
        </g>
        <g>
            <path d="M434.9 15.623c.09.245.361.372.607.283l1.78-.648a.474.474 0 0 0 .283-.607l-.972-2.67a.474.474 0 0 0-.607-.284l-1.78.648a.474.474 0 0 0-.283.607l.972 2.67zm.08-2.55l.89-.324.648 1.78-.89.325-.648-1.78zM433.563 10.565l1.78-.648a.474.474 0 0 0 .283-.607l-.971-2.67a.474.474 0 0 0-.608-.283l-1.78.648a.474.474 0 0 0-.283.607l.972 2.67c.09.246.361.373.607.283zm-.527-2.832l.89-.324.648 1.78-.89.324-.648-1.78z"/>
            <path d="M429.075 8.598l5.039-6.214 7.854 1.522a.47.47 0 0 0 .555-.375.473.473 0 0 0-.374-.555l-7.87-1.525-1.043-2.863 2.225-.81.324.89-1.335.486a.474.474 0 0 0 .324.89l1.78-.648a.474.474 0 0 0 .283-.607l-.648-1.78a.474.474 0 0 0-.607-.283l-3.115 1.134a.474.474 0 0 0-.283.607l1.204 3.308-5.05 6.228a.473.473 0 1 0 .737.595zM430.166 17.85a.474.474 0 0 0 .283-.607l-.972-2.67a.474.474 0 0 0-.607-.284l-1.78.648a.474.474 0 0 0-.283.607l.324.89a.474.474 0 0 0 .89-.324l-.162-.445.89-.324.81 2.226c.09.245.362.372.607.283zM435.388 22.501L430.69 9.595a.474.474 0 0 0-.89.324l4.697 12.906a.474.474 0 0 0 .89-.324z"/>
            <path d="M433.972 25.537l15.132-5.508a.474.474 0 0 0-.324-.89l-4.005 1.458-1.62-4.45.445-.163a.474.474 0 0 0-.324-.89l-8.011 2.916a.474.474 0 0 0 .324.89l.445-.162 1.62 4.45-4.006 1.459a.474.474 0 0 0 .324.89zm7.04-5.586a.474.474 0 0 0-.325-.89l-.648-1.78 2.226-.81 1.62 4.45-2.226.81-.648-1.78zm-4.088-1.537l2.225-.81.648 1.78a.474.474 0 0 0 .324.89l.648 1.78-2.225.81-1.62-4.45zM449.669 13.271l-1.78.648a.474.474 0 0 0-.284.607l.972 2.67c.09.246.362.373.607.284l1.78-.648a.474.474 0 0 0 .284-.607l-.972-2.67a.474.474 0 0 0-.607-.284zm.527 2.833l-.89.324-.649-1.78.89-.324.649 1.78zM447.725 7.93l-1.78.649a.474.474 0 0 0-.283.607l.971 2.67c.09.246.362.372.608.283l1.78-.648a.474.474 0 0 0 .283-.607l-.972-2.67a.474.474 0 0 0-.607-.283zm.527 2.833l-.89.324-.648-1.78.89-.324.648 1.78zM451.208 20.271l-18.692 6.804a.474.474 0 0 0 .324.89l18.692-6.804a.474.474 0 0 0-.324-.89z"/>
            <path d="M448.937 2.953a.474.474 0 0 0-.283.607l.162.445-4.895 1.782a.474.474 0 0 0 .324.89l4.895-1.782 5.346 14.687a.474.474 0 0 0 .89-.324l-5.832-16.022a.474.474 0 0 0-.607-.283zM439.35 14.003c.09.245.362.372.608.283l1.78-.648a.474.474 0 0 0 .283-.607l-.972-2.67a.474.474 0 0 0-.607-.284l-1.78.648a.474.474 0 0 0-.283.607l.972 2.67zm.08-2.55l.89-.323.649 1.78-.89.324-.648-1.78zM431.503 22.907c-.021-.058-2.131-5.776-4.331-4.976-2.2.801-.14 6.538-.12 6.596a2.372 2.372 0 0 0 2.574 1.533l.827 2.27a.474.474 0 0 0 .89-.324l-.827-2.27a2.372 2.372 0 0 0 .987-2.829zm-1.74 2.145a1.423 1.423 0 0 1-1.82-.849c-.807-2.217-1.187-5.112-.447-5.381.74-.27 2.31 2.192 3.117 4.41a1.423 1.423 0 0 1-.85 1.82zM446.96 18.29L442.1 4.938a.474.474 0 0 0-.89.324l4.859 13.352a.474.474 0 0 0 .89-.324zM438.014 8.945l1.78-.648a.474.474 0 0 0 .283-.607l-.972-2.67a.474.474 0 0 0-.607-.283l-1.78.648a.474.474 0 0 0-.283.607l.972 2.67c.09.246.361.373.607.283zm-.527-2.832l.89-.324.648 1.78-.89.324-.648-1.78zM425.23 18.134a.474.474 0 0 0 .283-.607l-1.296-3.56 4.896-1.782a.474.474 0 0 0-.324-.89l-4.896 1.782-.162-.445a.474.474 0 0 0-.89.324l1.782 4.895c.09.246.361.373.607.283z"/>
        </g>
        <g>
            <path d="M697.326 125.897a.474.474 0 0 0 .542-.394l1.111-7.017 20.583 3.26-1.111 7.017a.474.474 0 0 0 .935.149l1.186-7.485a.474.474 0 0 0-.394-.542l-10.76-1.704.445-2.807 2.34.37-.149.936-1.403-.222a.474.474 0 0 0-.148.935l1.87.297a.474.474 0 0 0 .543-.394l.296-1.871a.474.474 0 0 0-.394-.542l-3.274-.519a.474.474 0 0 0-.542.394l-.519 3.275-9.823-1.556a.474.474 0 0 0-.542.393l-1.186 7.485a.474.474 0 0 0 .394.542zM660.834 102.888a.506.506 0 0 0-.348.626l.575 2.011a.507.507 0 1 0 .976-.278l-.576-2.011a.508.508 0 0 0-.627-.348zM650.375 97.193a.503.503 0 0 0 .148-.13l3.678-4.79a.507.507 0 0 0-.805-.618l-3.55 4.623-15.24 2.012-.084-.146a.507.507 0 0 0-.879.508l.254.439a.507.507 0 0 0 .506.25l15.785-2.085a.502.502 0 0 0 .187-.063zM658.2 98.676a.507.507 0 0 0-.704.14c-.596.895-1.712 2.18-3.645 3.382l-2.276-3.94a.507.507 0 0 0-.879.506l2.274 3.938c-5.556 2.975-9.225.687-9.795.283l-1.723-2.984a.507.507 0 0 0-.879.507l1.776 3.076a.513.513 0 0 0 .125.145c.187.146 4.643 3.546 11.452-.386 2.38-1.374 3.714-2.914 4.414-3.964a.506.506 0 0 0-.14-.703zM662.292 102.614a.507.507 0 0 0-.186.693l.76 1.318a.507.507 0 1 0 .88-.507l-.762-1.318a.507.507 0 0 0-.692-.186z"/>
            <path d="M659.31 83.247a.507.507 0 0 0-.185.693l.084.145-4.02 5.213-.458-.794 4.475-5.827a.507.507 0 0 0-.469-.812l-15.785 2.084a.508.508 0 0 0-.336.194L632.92 96.77a.507.507 0 0 0 .47.812l15.784-2.084a.502.502 0 0 0 .336-.194l3.506-4.566a.507.507 0 1 0-.804-.618l-3.38 4.4-14.36 1.896 8.822-11.49 14.362-1.896-3.84 5-5.872.985a1.211 1.211 0 0 0-.123-.307c-.427-.739-1.533-.872-2.518-.303-.986.569-1.423 1.594-.997 2.332.427.74 1.533.873 2.519.304.44-.254.762-.6.956-.97l6.094-1.022.813 1.407 5.436 9.416a1.52 1.52 0 0 0-.164 1.745c.42.726 1.352.976 2.079.557.727-.42.977-1.352.557-2.08a1.52 1.52 0 0 0-1.593-.729l-1.44-2.494c.712-1.68.432-3.209.42-3.277a.513.513 0 0 0-.06-.157l-1.775-3.076a.507.507 0 1 0-.879.508l1.729 2.994c.031.23.099.957-.112 1.834l-3.147-5.45 4.482-5.813a.507.507 0 0 0 .037-.563l-.253-.44a.507.507 0 0 0-.693-.185zm-12.994 6.916c-.536.31-1.029.247-1.132.068-.104-.18.088-.637.625-.946.536-.31 1.029-.248 1.132-.068.104.179-.088.637-.625.946zm15.215 11.133a.508.508 0 1 1-.507-.88.508.508 0 0 1 .507.88zM663.974 101.5a.507.507 0 1 0-.729.706l1.454 1.504a.507.507 0 0 0 .729-.706l-1.454-1.504zM358.123 95.976a.474.474 0 0 0 .636.206c.028-.014 2.81-1.427 4.183-1.86a.473.473 0 0 0-.286-.903c-1.445.457-4.209 1.861-4.326 1.92a.473.473 0 0 0-.207.637zM358.545 90.561a.472.472 0 0 0 .214-.051c.028-.014 2.81-1.428 4.183-1.861a.473.473 0 0 0-.286-.902c-1.445.457-4.209 1.86-4.326 1.92a.473.473 0 0 0 .215.894z"/>
            <path d="M369.89 89.616a.473.473 0 0 0-.473.473v18.435a1.42 1.42 0 0 1-1.418 1.418h-11.345v-1.088c.689-.24 2.484-.803 4.254-.803 4.118 0 6.914.912 6.942.921a.475.475 0 0 0 .621-.448V87.725a.472.472 0 0 0-.37-.461s-.37-.083-1.004-.2a.473.473 0 0 0-.171.93c.242.045.444.084.6.115v19.787c-1.071-.281-3.45-.79-6.618-.79-2.06 0-4.083.676-4.709.905-.556-.245-2.238-.905-4.272-.905-3.256 0-5.938.537-7.09.81V88.09a31.114 31.114 0 0 1 7.09-.839c1.723 0 3.201.537 3.781.78v18.601a.473.473 0 0 0 .716.405c.047-.028 4.73-2.825 8.888-4.21a.473.473 0 0 0 .323-.45v-19.38a.473.473 0 0 0-.64-.443c-3.781 1.419-7.608 3.8-7.646 3.824a.473.473 0 0 0 .5.802c.036-.023 3.365-2.094 6.84-3.492v18.351c-3.226 1.122-6.595 2.952-8.035 3.772V87.725a.473.473 0 0 0-.262-.423c-.081-.04-2.018-.995-4.465-.995-4.272 0-7.555.924-7.693.964a.472.472 0 0 0-.343.454v20.799a.475.475 0 0 0 .602.454c.033-.009 3.301-.927 7.434-.927 1.728 0 3.205.538 3.781.78v1.11h-11.344a1.42 1.42 0 0 1-1.419-1.417V90.089a.473.473 0 0 0-.945 0v18.435a2.366 2.366 0 0 0 2.364 2.363h23.635a2.366 2.366 0 0 0 2.363-2.363V90.089a.473.473 0 0 0-.473-.473z"/>
            <path d="M358.123 93.14a.474.474 0 0 0 .636.206c.028-.014 2.81-1.428 4.183-1.861a.473.473 0 0 0-.286-.902c-1.445.457-4.209 1.861-4.326 1.92a.473.473 0 0 0-.207.636zM358.123 98.812a.474.474 0 0 0 .636.206c.028-.014 2.81-1.427 4.183-1.86a.473.473 0 0 0-.286-.903c-1.445.457-4.209 1.861-4.326 1.92a.473.473 0 0 0-.207.637zM353.453 91.298c-2.92-.685-6.236.187-6.376.225a.473.473 0 0 0 .245.913c.032-.009 3.226-.849 5.915-.218a.473.473 0 1 0 .215-.92zM353.453 94.134c-2.92-.685-6.236.188-6.376.225a.473.473 0 0 0 .245.913c.032-.009 3.226-.849 5.915-.218a.473.473 0 1 0 .215-.92zM358.123 101.648a.474.474 0 0 0 .636.206c.028-.014 2.81-1.427 4.183-1.86a.473.473 0 0 0-.286-.902c-1.445.457-4.209 1.86-4.326 1.92a.473.473 0 0 0-.207.636zM353.453 96.97c-2.92-.684-6.236.187-6.376.225a.473.473 0 0 0 .245.913c.032-.009 3.226-.849 5.915-.218a.473.473 0 1 0 .215-.92zM353.453 102.642c-2.92-.684-6.236.188-6.376.226a.473.473 0 0 0 .245.913c.032-.01 3.226-.85 5.915-.218a.473.473 0 1 0 .215-.92zM353.453 99.806c-2.92-.685-6.236.187-6.376.225a.473.473 0 0 0 .245.914c.032-.01 3.226-.85 5.915-.218a.473.473 0 1 0 .215-.92z"/>
            <g>
                <path d="M592.133 101.526l-5.742-3.315a2.37 2.37 0 0 0-3.235.867l-8.525 14.766a.473.473 0 0 0 .173.647l2.461 1.42a.473.473 0 1 0 .474-.82l-2.051-1.184.474-.82.41.237a.473.473 0 1 0 .473-.82l-.41-.237.474-.82.41.236a.473.473 0 1 0 .474-.82l-.41-.237.473-.82.41.236a.473.473 0 1 0 .474-.82l-.41-.237.473-.82 2.051 1.184a.473.473 0 1 0 .474-.82l-2.051-1.184.474-.82.41.236a.473.473 0 1 0 .473-.82l-.41-.237.474-.82.41.236a.473.473 0 1 0 .474-.82l-.41-.237.473-.82.41.237a.473.473 0 1 0 .474-.82l-.41-.237.473-.82 2.051 1.183a.473.473 0 1 0 .474-.82l-2.051-1.184.71-1.23a1.423 1.423 0 0 1 1.941-.52l5.743 3.315c.678.391.911 1.262.52 1.94l-11.84 20.51a1.423 1.423 0 0 1-1.942.52L572.656 122a1.423 1.423 0 0 1-.52-1.941l2.368-4.102a.473.473 0 1 0-.82-.473l-2.368 4.101a2.37 2.37 0 0 0 .866 3.235l5.743 3.315a2.37 2.37 0 0 0 3.235-.866L593 104.76a2.37 2.37 0 0 0-.867-3.235zM576.34 99.517l-8.525 14.766a.473.473 0 1 0 .82.474l8.526-14.766a.473.473 0 1 0-.82-.474z"/>
                <path d="M580.065 94.86c.021-.358-.434-.62-.734-.423l-3.535 2.334a.475.475 0 0 0-.15.158l-10.892 18.868a2.37 2.37 0 0 0 .866 3.235 2.37 2.37 0 0 0 3.235-.867l.474-.82a.473.473 0 0 0-.173-.647l-1.641-.947a.473.473 0 1 0-.474.82l1.23.71-.236.41a1.423 1.423 0 0 1-1.941.52 1.423 1.423 0 0 1-.52-1.94L576.41 97.5l2.652-1.75-.151 2.517-.977-.564a.473.473 0 1 0-.474.82l1.23.711-9.235 15.997a.473.473 0 1 0 .82.473l9.472-16.406.004-.007a.478.478 0 0 0 .06-.211l.253-4.22zM579.062 121.324a1.896 1.896 0 0 0-.693-2.588 1.896 1.896 0 0 0-2.588.694 1.896 1.896 0 0 0 .693 2.588 1.896 1.896 0 0 0 2.588-.694zm-2.46-1.42a.948.948 0 0 1 1.64.947.948.948 0 0 1-1.64-.948zM587.33 125.003a.473.473 0 1 0-.474.82l3.28 1.895a.473.473 0 0 0 .648-.173l1.42-2.461a2.37 2.37 0 0 0-.866-3.235l-1.64-.947a2.37 2.37 0 0 0-3.236.866l-2.841 4.923a2.37 2.37 0 0 0 .866 3.234l1.641.948a2.37 2.37 0 0 0 3.235-.867l.474-.82a.473.473 0 1 0-.82-.474l-.474.82a1.423 1.423 0 0 1-1.941.52l-1.64-.947a1.423 1.423 0 0 1-.521-1.94l2.842-4.923a1.423 1.423 0 0 1 1.94-.52l1.641.947c.679.392.912 1.263.52 1.941l-1.184 2.051-2.87-1.658z"/>
            </g>
            <g>
                <path d="M483.992 103.554h1.894a.473.473 0 1 0 0-.947h-1.894a.473.473 0 1 0 0 .947zM482.097 100.712a.473.473 0 1 0 0-.947h-1.894a.473.473 0 0 0-.474.474v3.789c0 .261.212.473.474.473h1.894a.473.473 0 1 0 0-.947h-1.42v-.947h1.42a.473.473 0 1 0 0-.947h-1.42v-.948h1.42zM489.201 112.08a.473.473 0 0 0-.473.473v1.225l-3.177 3.176a.473.473 0 1 0 .67.67l3.315-3.316a.475.475 0 0 0 .139-.334v-1.421a.473.473 0 0 0-.474-.474zM490.957 115.06a.473.473 0 1 0-.67.67l1.895 1.894a.472.472 0 0 0 .67 0 .473.473 0 0 0 0-.67l-1.895-1.894z"/>
                <path d="M502.936 90.293h-13.261v-.474a.473.473 0 1 0-.947 0v.474h-13.262a.474.474 0 0 0-.473.473v1.895c0 .261.211.473.473.473h24.629a.473.473 0 1 0 0-.947H475.94v-.947h26.523v.947h-.474a.473.473 0 0 0-.473.474v16.103c0 .783-.638 1.42-1.421 1.42h-21.787c-.783 0-1.42-.637-1.42-1.42V94.555a.473.473 0 1 0-.948 0v14.209a2.37 2.37 0 0 0 2.368 2.368h21.787a2.37 2.37 0 0 0 2.368-2.368v-15.63h.473a.473.473 0 0 0 .474-.473v-1.895a.473.473 0 0 0-.474-.473z"/>
                <path d="M498.674 100.239c0-.784-.638-1.421-1.421-1.421s-1.42.637-1.42 1.42a.473.473 0 1 0 .946 0 .474.474 0 0 1 .948 0c-.012.146-.381.541-.758.806l-.947.71a.473.473 0 0 0 .284.853h1.894a.473.473 0 1 0 0-.947h-.472c.362-.287.946-.84.946-1.421zM493.464 100.712c.261 0 .474.213.474.474a.473.473 0 1 0 .947 0c0-.784-.638-1.421-1.421-1.421s-1.42.637-1.42 1.42v1.895c0 .784.637 1.421 1.42 1.421.783 0 1.42-.637 1.42-1.42a.473.473 0 1 0-.946 0 .474.474 0 0 1-.948 0v-1.895c0-.261.213-.474.474-.474zM490.622 104.501a.473.473 0 0 0 .474-.473v-3.79a.474.474 0 0 0-.853-.284l-1.042 1.39-1.042-1.39a.473.473 0 0 0-.852.285v3.789a.473.473 0 1 0 .947 0v-2.369l.569.758a.49.49 0 0 0 .757 0l.569-.758v2.369c0 .261.211.473.473.473zM483.992 101.66h1.894a.473.473 0 1 0 0-.948h-1.894a.473.473 0 1 0 0 .947z"/>
            </g>
            <g>
                <path d="M858.022 94.9a.473.473 0 0 0-.473-.473h-2.836a.473.473 0 0 0 0 .946h2.836c.26 0 .473-.212.473-.473zM856.13 82.61v-2.364a.473.473 0 0 0-.945 0v2.364a2.366 2.366 0 0 0 2.364 2.363h4.254v8.982a.473.473 0 0 0 .946 0V84.5a.473.473 0 0 0-.473-.473h-4.727a1.42 1.42 0 0 1-1.418-1.418zM857.549 88.755h-3.782a.473.473 0 0 0 0 .945h3.782a.473.473 0 0 0 0-.945zM852.35 89.228a.473.473 0 0 0-.473-.473h-2.837a.473.473 0 0 0 0 .945h2.837c.26 0 .472-.212.472-.472zM849.04 91.591a.473.473 0 0 0 0 .945h.946a.473.473 0 0 0 0-.945h-.946zM849.04 86.864h4.727a.473.473 0 0 0 0-.945h-4.727a.473.473 0 0 0 0 .945zM851.876 92.536h4.727a.473.473 0 0 0 0-.945h-4.727a.473.473 0 0 0 0 .945zM854.713 97.263a.473.473 0 0 0 0 .946h.945a.473.473 0 0 0 0-.946h-.945zM852.822 94.427h-3.782a.473.473 0 0 0 0 .946h3.782a.473.473 0 0 0 0-.946zM852.822 97.263h-3.782a.473.473 0 0 0 0 .946h3.782a.473.473 0 0 0 0-.946zM864.076 96.881l-.945-.945a1.776 1.776 0 0 0-2.56 0l-6.193 6.193a.473.473 0 0 0-.138.334v2.836c0 .261.212.473.473.473h2.836c.125 0 .246-.05.334-.139l6.193-6.193c.753-.753.753-1.806 0-2.559zm-4.115 1.003l.75.75-4.108 4.106-.75-.75 4.108-4.106zm-4.776 6.943v-2.168l2.168 2.168h-2.168zm2.837-.669l-.75-.75 4.107-4.106.75.75-4.107 4.106zm5.386-5.386l-.611.611-2.168-2.168.611-.611c.374-.373.847-.375 1.223 0l.945.945c.382.383.382.84 0 1.223z"/>
                <path d="M852.822 104.827h-12.29a1.42 1.42 0 0 1-1.418-1.419V79.774a1.42 1.42 0 0 1 1.418-1.419h14.93l4.589 4.589a.472.472 0 1 0 .668-.668l-4.727-4.727a.472.472 0 0 0-.334-.139h-15.126a2.366 2.366 0 0 0-2.364 2.364v23.634a2.366 2.366 0 0 0 2.364 2.364h12.29a.473.473 0 0 0 0-.945z"/>
                <path d="M852.822 100.1h-3.782a.473.473 0 0 0 0 .945h3.782a.473.473 0 0 0 0-.945zM846.677 86.391a.473.473 0 0 0-.473-.472h-2.836a.473.473 0 0 0-.473.472v2.837c0 .26.212.472.473.472h2.836c.261 0 .473-.212.473-.472V86.39zm-.946 2.364h-1.89v-1.891h1.89v1.89zM843.368 101.045h2.836c.261 0 .473-.212.473-.473v-2.836a.473.473 0 0 0-.473-.473h-2.836a.473.473 0 0 0-.473.473v2.836c0 .261.212.473.473.473zm.473-2.836h1.89v1.89h-1.89v-1.89zM843.98 95.234a.473.473 0 0 0 .727-.072l1.89-2.836a.473.473 0 0 0-.786-.525l-1.57 2.357-.539-.538a.472.472 0 1 0-.668.669l.945.945z"/>
            </g>
            <g>
                <path d="M411.543 120.482l10.975-.492a.525.525 0 0 0 .12-.022l9.967-3.13.285 1.62c-.234.38-.73 1.314-.572 2.212.181 1.027 1.084 1.252 1.646 1.152.563-.099 1.334-.619 1.153-1.646-.158-.897-.943-1.605-1.294-1.882l-.38-2.15a.469.469 0 0 0-.065-.169c-.011-.017-.027-.03-.04-.046a.468.468 0 0 0-.078-.08c-.02-.015-.041-.023-.062-.034a.445.445 0 0 0-.094-.042c-.025-.008-.05-.008-.076-.01-.024-.004-.047-.012-.072-.011l-10.974.492a.53.53 0 0 0-.12.022l-10.482 3.29a.474.474 0 0 0 .163.926zm22.641-.141c.066.372-.171.504-.384.549-.215.03-.483-.012-.549-.385-.068-.387.094-.86.266-1.22.285.279.599.669.667 1.056zm-12.098-3.153l7.285-.327-6.958 2.185-7.285.327 6.958-2.185z"/>
                <path d="M430.617 121.932l-.576-3.265a.473.473 0 1 0-.932.164l.522 2.963c-.714.463-2.995 1.802-6.312 2.387-3.317.584-5.919.107-6.748-.084l-.522-2.963a.473.473 0 1 0-.933.165l.576 3.265c.03.176.159.32.331.372.129.037 3.201.928 7.46.177 4.26-.75 6.842-2.639 6.95-2.718a.474.474 0 0 0 .184-.463z"/>
            </g>
            <g>
                <path d="M757.9 96.623c.09.245.361.372.607.283l1.78-.648a.474.474 0 0 0 .283-.607l-.972-2.67a.474.474 0 0 0-.607-.284l-1.78.648a.474.474 0 0 0-.283.607l.972 2.67zm.08-2.55l.89-.324.648 1.78-.89.325-.648-1.78zM756.563 91.565l1.78-.648a.474.474 0 0 0 .283-.607l-.971-2.67a.474.474 0 0 0-.608-.283l-1.78.648a.474.474 0 0 0-.283.607l.972 2.67c.09.246.361.373.607.283zm-.527-2.832l.89-.324.648 1.78-.89.324-.648-1.78z"/>
                <path d="M752.075 89.598l5.039-6.214 7.854 1.522a.47.47 0 0 0 .555-.375.473.473 0 0 0-.374-.555l-7.87-1.525-1.043-2.863 2.225-.81.324.89-1.335.486a.474.474 0 0 0 .324.89l1.78-.648a.474.474 0 0 0 .283-.607l-.648-1.78a.474.474 0 0 0-.607-.283l-3.115 1.134a.474.474 0 0 0-.283.607l1.204 3.308-5.05 6.228a.473.473 0 1 0 .737.595zM753.166 98.85a.474.474 0 0 0 .283-.607l-.972-2.67a.474.474 0 0 0-.607-.284l-1.78.648a.474.474 0 0 0-.283.607l.324.89a.474.474 0 0 0 .89-.324l-.162-.445.89-.324.81 2.226c.09.245.362.372.607.283zM758.388 103.501l-4.698-12.906a.474.474 0 0 0-.89.324l4.697 12.906a.474.474 0 0 0 .89-.324z"/>
                <path d="M756.972 106.537l15.132-5.508a.474.474 0 0 0-.324-.89l-4.005 1.458-1.62-4.45.445-.163a.474.474 0 0 0-.324-.89l-8.011 2.916a.474.474 0 0 0 .324.89l.445-.162 1.62 4.45-4.006 1.459a.474.474 0 0 0 .324.89zm7.04-5.586a.474.474 0 0 0-.325-.89l-.648-1.78 2.226-.81 1.62 4.45-2.226.81-.648-1.78zm-4.088-1.537l2.225-.81.648 1.78a.474.474 0 0 0 .324.89l.648 1.78-2.225.81-1.62-4.45zM772.669 94.271l-1.78.648a.474.474 0 0 0-.284.607l.972 2.67c.09.246.362.373.607.284l1.78-.648a.474.474 0 0 0 .284-.607l-.972-2.67a.474.474 0 0 0-.607-.284zm.527 2.833l-.89.324-.649-1.78.89-.324.649 1.78zM770.725 88.93l-1.78.649a.474.474 0 0 0-.283.607l.971 2.67c.09.246.362.372.608.283l1.78-.648a.474.474 0 0 0 .283-.607l-.972-2.67a.474.474 0 0 0-.607-.283zm.527 2.833l-.89.324-.648-1.78.89-.324.648 1.78zM774.208 101.271l-18.692 6.804a.474.474 0 0 0 .324.89l18.692-6.804a.474.474 0 0 0-.324-.89z"/>
                <path d="M771.937 83.953a.474.474 0 0 0-.283.607l.162.445-4.895 1.782a.474.474 0 0 0 .324.89l4.895-1.782 5.346 14.687a.474.474 0 0 0 .89-.324l-5.832-16.022a.474.474 0 0 0-.607-.283zM762.35 95.003c.09.245.362.372.608.283l1.78-.648a.474.474 0 0 0 .283-.607l-.972-2.67a.474.474 0 0 0-.607-.284l-1.78.648a.474.474 0 0 0-.283.607l.972 2.67zm.08-2.55l.89-.323.649 1.78-.89.324-.648-1.78zM754.503 103.907c-.021-.058-2.131-5.776-4.331-4.976-2.2.801-.14 6.538-.12 6.596a2.372 2.372 0 0 0 2.574 1.533l.827 2.27a.474.474 0 0 0 .89-.324l-.827-2.27a2.372 2.372 0 0 0 .987-2.829zm-1.74 2.145a1.423 1.423 0 0 1-1.82-.849c-.807-2.217-1.187-5.112-.447-5.381.74-.27 2.31 2.192 3.117 4.41a1.423 1.423 0 0 1-.85 1.82zM769.96 99.29l-4.86-13.352a.474.474 0 0 0-.89.324l4.859 13.352a.474.474 0 0 0 .89-.324zM761.014 89.945l1.78-.648a.474.474 0 0 0 .283-.607l-.972-2.67a.474.474 0 0 0-.607-.283l-1.78.648a.474.474 0 0 0-.283.607l.972 2.67c.09.246.361.373.607.283zm-.527-2.832l.89-.324.648 1.78-.89.324-.648-1.78zM748.23 99.134a.474.474 0 0 0 .283-.607l-1.296-3.56 4.896-1.782a.474.474 0 0 0-.324-.89l-4.896 1.782-.162-.445a.474.474 0 0 0-.89.324l1.782 4.895c.09.246.361.373.607.283z"/>
            </g>
        </g>
        <g>
            <path d="M114.326 124.897a.474.474 0 0 0 .542-.394l1.111-7.017 20.583 3.26-1.111 7.017a.474.474 0 0 0 .935.149l1.186-7.485a.474.474 0 0 0-.394-.542l-10.76-1.704.445-2.807 2.34.37-.149.936-1.403-.222a.474.474 0 0 0-.148.935l1.87.297a.474.474 0 0 0 .543-.394l.296-1.871a.474.474 0 0 0-.394-.542l-3.274-.519a.474.474 0 0 0-.542.394l-.519 3.275-9.823-1.556a.474.474 0 0 0-.542.393l-1.186 7.485a.474.474 0 0 0 .394.542z"/>
            <path d="M118.022 119.728a.474.474 0 0 0-.542.394l-.445 2.807a.474.474 0 0 0 .394.541l1.871.297a.474.474 0 0 0 .542-.394l.445-2.807a.474.474 0 0 0-.394-.542l-1.871-.296zm.959 3.03l-.936-.15.296-1.87.936.148-.296 1.871zM77.834 101.888a.506.506 0 0 0-.348.626l.575 2.011a.507.507 0 1 0 .976-.278l-.576-2.011a.508.508 0 0 0-.627-.348zM67.375 96.193a.503.503 0 0 0 .148-.13l3.678-4.79a.507.507 0 0 0-.805-.618l-3.55 4.623-15.24 2.012-.084-.146a.507.507 0 0 0-.879.508l.254.439a.507.507 0 0 0 .506.25l15.785-2.085a.502.502 0 0 0 .187-.063zM75.2 97.676a.507.507 0 0 0-.704.14c-.596.895-1.712 2.18-3.645 3.382l-2.276-3.94a.507.507 0 0 0-.879.506l2.274 3.938c-5.556 2.975-9.225.687-9.795.283l-1.723-2.984a.507.507 0 0 0-.879.507l1.776 3.076a.513.513 0 0 0 .125.145c.187.146 4.643 3.546 11.452-.386 2.38-1.374 3.714-2.914 4.414-3.964a.506.506 0 0 0-.14-.703zM79.292 101.614a.507.507 0 0 0-.186.693l.76 1.318a.507.507 0 1 0 .88-.507l-.762-1.318a.507.507 0 0 0-.692-.186z"/>
            <path d="M76.31 82.247a.507.507 0 0 0-.185.693l.084.145-4.02 5.213-.458-.794 4.475-5.827a.507.507 0 0 0-.469-.812l-15.785 2.084a.508.508 0 0 0-.336.194L49.92 95.77a.507.507 0 0 0 .47.812l15.784-2.084a.502.502 0 0 0 .336-.194l3.506-4.566a.507.507 0 1 0-.804-.618l-3.38 4.4-14.36 1.896 8.822-11.49 14.362-1.896-3.84 5-5.872.985a1.211 1.211 0 0 0-.123-.307c-.427-.739-1.533-.872-2.518-.303-.986.569-1.423 1.594-.997 2.332.427.74 1.533.873 2.519.304.44-.254.762-.6.956-.97l6.094-1.022.813 1.407 5.436 9.416a1.52 1.52 0 0 0-.164 1.745c.42.726 1.352.976 2.079.557.727-.42.977-1.352.557-2.08a1.52 1.52 0 0 0-1.593-.729l-1.44-2.494c.712-1.68.432-3.209.42-3.277a.513.513 0 0 0-.06-.157l-1.775-3.076a.507.507 0 1 0-.879.508l1.729 2.994c.031.23.099.957-.112 1.834l-3.147-5.45 4.482-5.813a.507.507 0 0 0 .037-.563l-.253-.44a.507.507 0 0 0-.693-.185zm-12.994 6.916c-.536.31-1.029.247-1.132.068-.104-.18.088-.637.625-.946.536-.31 1.029-.248 1.132-.068.104.179-.088.637-.625.946zm15.215 11.133a.508.508 0 1 1-.507-.88.508.508 0 0 1 .507.88zM80.974 100.5a.507.507 0 1 0-.729.706l1.454 1.504a.507.507 0 0 0 .729-.706l-1.454-1.504z"/>
            <g>
                <path d="M9.133 100.526l-5.742-3.315a2.37 2.37 0 0 0-3.235.867l-8.525 14.766a.473.473 0 0 0 .173.647l2.461 1.42a.473.473 0 1 0 .474-.82l-2.051-1.184.474-.82.41.237a.473.473 0 1 0 .473-.82l-.41-.237.474-.82.41.236a.473.473 0 1 0 .474-.82l-.41-.237.473-.82.41.236a.473.473 0 1 0 .474-.82l-.41-.237.473-.82 2.051 1.184a.473.473 0 1 0 .474-.82l-2.051-1.184.474-.82.41.236a.473.473 0 1 0 .473-.82l-.41-.237.474-.82.41.236a.473.473 0 1 0 .474-.82l-.41-.237.473-.82.41.237a.473.473 0 1 0 .474-.82l-.41-.237.473-.82 2.051 1.183a.473.473 0 1 0 .474-.82L.266 99.782l.71-1.23a1.423 1.423 0 0 1 1.941-.52l5.743 3.315c.678.391.911 1.262.52 1.94l-11.84 20.51a1.423 1.423 0 0 1-1.942.52L-10.344 121a1.423 1.423 0 0 1-.52-1.941l2.368-4.102a.473.473 0 1 0-.82-.473l-2.368 4.101a2.37 2.37 0 0 0 .866 3.235l5.743 3.315a2.37 2.37 0 0 0 3.235-.866L10 103.76a2.37 2.37 0 0 0-.867-3.235zM4.33 124.003a.473.473 0 1 0-.474.82l3.28 1.895a.473.473 0 0 0 .648-.173l1.42-2.461a2.37 2.37 0 0 0-.866-3.235l-1.64-.947a2.37 2.37 0 0 0-3.236.866l-2.841 4.923a2.37 2.37 0 0 0 .866 3.234l1.641.948a2.37 2.37 0 0 0 3.235-.867l.474-.82a.473.473 0 1 0-.82-.474l-.474.82a1.423 1.423 0 0 1-1.941.52l-1.64-.947a1.423 1.423 0 0 1-.521-1.94l2.842-4.923a1.423 1.423 0 0 1 1.94-.52l1.641.947c.679.392.912 1.263.52 1.941L7.2 125.661l-2.87-1.658z"/>
            </g>
            <g>
                <path d="M275.022 93.9a.473.473 0 0 0-.473-.473h-2.836a.473.473 0 0 0 0 .946h2.836c.26 0 .473-.212.473-.473zM273.13 81.61v-2.364a.473.473 0 0 0-.945 0v2.364a2.366 2.366 0 0 0 2.364 2.363h4.254v8.982a.473.473 0 0 0 .946 0V83.5a.473.473 0 0 0-.473-.473h-4.727a1.42 1.42 0 0 1-1.418-1.418zM274.549 87.755h-3.782a.473.473 0 0 0 0 .945h3.782a.473.473 0 0 0 0-.945zM269.35 88.228a.473.473 0 0 0-.473-.473h-2.837a.473.473 0 0 0 0 .945h2.837c.26 0 .472-.212.472-.472zM266.04 90.591a.473.473 0 0 0 0 .945h.946a.473.473 0 0 0 0-.945h-.946zM266.04 85.864h4.727a.473.473 0 0 0 0-.945h-4.727a.473.473 0 0 0 0 .945zM268.876 91.536h4.727a.473.473 0 0 0 0-.945h-4.727a.473.473 0 0 0 0 .945zM271.713 96.263a.473.473 0 0 0 0 .946h.945a.473.473 0 0 0 0-.946h-.945zM269.822 93.427h-3.782a.473.473 0 0 0 0 .946h3.782a.473.473 0 0 0 0-.946zM269.822 96.263h-3.782a.473.473 0 0 0 0 .946h3.782a.473.473 0 0 0 0-.946zM281.076 95.881l-.945-.945a1.776 1.776 0 0 0-2.56 0l-6.193 6.193a.473.473 0 0 0-.138.334v2.836c0 .261.212.473.473.473h2.836c.125 0 .246-.05.334-.139l6.193-6.193c.753-.753.753-1.806 0-2.559zm-4.115 1.003l.75.75-4.108 4.106-.75-.75 4.108-4.106zm-4.776 6.943v-2.168l2.168 2.168h-2.168zm2.837-.669l-.75-.75 4.107-4.106.75.75-4.107 4.106zm5.386-5.386l-.611.611-2.168-2.168.611-.611c.374-.373.847-.375 1.223 0l.945.945c.382.383.382.84 0 1.223z"/>
                <path d="M269.822 103.827h-12.29a1.42 1.42 0 0 1-1.418-1.419V78.774a1.42 1.42 0 0 1 1.418-1.419h14.93l4.589 4.589a.472.472 0 1 0 .668-.668l-4.727-4.727a.472.472 0 0 0-.334-.139h-15.126a2.366 2.366 0 0 0-2.364 2.364v23.634a2.366 2.366 0 0 0 2.364 2.364h12.29a.473.473 0 0 0 0-.945z"/>
                <path d="M269.822 99.1h-3.782a.473.473 0 0 0 0 .945h3.782a.473.473 0 0 0 0-.945zM263.677 85.391a.473.473 0 0 0-.473-.472h-2.836a.473.473 0 0 0-.473.472v2.837c0 .26.212.472.473.472h2.836c.261 0 .473-.212.473-.472V85.39zm-.946 2.364h-1.89v-1.891h1.89v1.89zM260.368 100.045h2.836c.261 0 .473-.212.473-.473v-2.836a.473.473 0 0 0-.473-.473h-2.836a.473.473 0 0 0-.473.473v2.836c0 .261.212.473.473.473zm.473-2.836h1.89v1.89h-1.89v-1.89zM260.98 94.234a.473.473 0 0 0 .727-.072l1.89-2.836a.473.473 0 0 0-.786-.525l-1.57 2.357-.539-.538a.472.472 0 1 0-.668.669l.945.945z"/>
            </g>
            <g>
                <path d="M174.9 95.623c.09.245.361.372.607.283l1.78-.648a.474.474 0 0 0 .283-.607l-.972-2.67a.474.474 0 0 0-.607-.284l-1.78.648a.474.474 0 0 0-.283.607l.972 2.67zm.08-2.55l.89-.324.648 1.78-.89.325-.648-1.78zM173.563 90.565l1.78-.648a.474.474 0 0 0 .283-.607l-.971-2.67a.474.474 0 0 0-.608-.283l-1.78.648a.474.474 0 0 0-.283.607l.972 2.67c.09.246.361.373.607.283zm-.527-2.832l.89-.324.648 1.78-.89.324-.648-1.78z"/>
                <path d="M169.075 88.598l5.039-6.214 7.854 1.522a.47.47 0 0 0 .555-.375.473.473 0 0 0-.374-.555l-7.87-1.525-1.043-2.863 2.225-.81.324.89-1.335.486a.474.474 0 0 0 .324.89l1.78-.648a.474.474 0 0 0 .283-.607l-.648-1.78a.474.474 0 0 0-.607-.283l-3.115 1.134a.474.474 0 0 0-.283.607l1.204 3.308-5.05 6.228a.473.473 0 1 0 .737.595zM170.166 97.85a.474.474 0 0 0 .283-.607l-.972-2.67a.474.474 0 0 0-.607-.284l-1.78.648a.474.474 0 0 0-.283.607l.324.89a.474.474 0 0 0 .89-.324l-.162-.445.89-.324.81 2.226c.09.245.362.372.607.283zM175.388 102.501l-4.698-12.906a.474.474 0 0 0-.89.324l4.697 12.906a.474.474 0 0 0 .89-.324z"/>
                <path d="M173.972 105.537l15.132-5.508a.474.474 0 0 0-.324-.89l-4.005 1.458-1.62-4.45.445-.163a.474.474 0 0 0-.324-.89l-8.011 2.916a.474.474 0 0 0 .324.89l.445-.162 1.62 4.45-4.006 1.459a.474.474 0 0 0 .324.89zm7.04-5.586a.474.474 0 0 0-.325-.89l-.648-1.78 2.226-.81 1.62 4.45-2.226.81-.648-1.78zm-4.088-1.537l2.225-.81.648 1.78a.474.474 0 0 0 .324.89l.648 1.78-2.225.81-1.62-4.45zM189.669 93.271l-1.78.648a.474.474 0 0 0-.284.607l.972 2.67c.09.246.362.373.607.284l1.78-.648a.474.474 0 0 0 .284-.607l-.972-2.67a.474.474 0 0 0-.607-.284zm.527 2.833l-.89.324-.649-1.78.89-.324.649 1.78zM187.725 87.93l-1.78.649a.474.474 0 0 0-.283.607l.971 2.67c.09.246.362.372.608.283l1.78-.648a.474.474 0 0 0 .283-.607l-.972-2.67a.474.474 0 0 0-.607-.283zm.527 2.833l-.89.324-.648-1.78.89-.324.648 1.78zM191.208 100.271l-18.692 6.804a.474.474 0 0 0 .324.89l18.692-6.804a.474.474 0 0 0-.324-.89z"/>
                <path d="M188.937 82.953a.474.474 0 0 0-.283.607l.162.445-4.895 1.782a.474.474 0 0 0 .324.89l4.895-1.782 5.346 14.687a.474.474 0 0 0 .89-.324l-5.832-16.022a.474.474 0 0 0-.607-.283zM179.35 94.003c.09.245.362.372.608.283l1.78-.648a.474.474 0 0 0 .283-.607l-.972-2.67a.474.474 0 0 0-.607-.284l-1.78.648a.474.474 0 0 0-.283.607l.972 2.67zm.08-2.55l.89-.323.649 1.78-.89.324-.648-1.78zM171.503 102.907c-.021-.058-2.131-5.776-4.331-4.976-2.2.801-.14 6.538-.12 6.596a2.372 2.372 0 0 0 2.574 1.533l.827 2.27a.474.474 0 0 0 .89-.324l-.827-2.27a2.372 2.372 0 0 0 .987-2.829zm-1.74 2.145a1.423 1.423 0 0 1-1.82-.849c-.807-2.217-1.187-5.112-.447-5.381.74-.27 2.31 2.192 3.117 4.41a1.423 1.423 0 0 1-.85 1.82zM186.96 98.29l-4.86-13.352a.474.474 0 0 0-.89.324l4.859 13.352a.474.474 0 0 0 .89-.324zM178.014 88.945l1.78-.648a.474.474 0 0 0 .283-.607l-.972-2.67a.474.474 0 0 0-.607-.283l-1.78.648a.474.474 0 0 0-.283.607l.972 2.67c.09.246.361.373.607.283zm-.527-2.832l.89-.324.648 1.78-.89.324-.648-1.78zM165.23 98.134a.474.474 0 0 0 .283-.607l-1.296-3.56 4.896-1.782a.474.474 0 0 0-.324-.89l-4.896 1.782-.162-.445a.474.474 0 0 0-.89.324l1.782 4.895c.09.246.361.373.607.283z"/>
            </g>
        </g>
        <g>
            <path d="M955.123 84.976a.474.474 0 0 0 .636.206c.028-.014 2.81-1.427 4.183-1.86a.473.473 0 0 0-.286-.903c-1.445.457-4.209 1.861-4.326 1.92a.473.473 0 0 0-.207.637zM955.545 79.561a.472.472 0 0 0 .214-.051c.028-.014 2.81-1.428 4.183-1.861a.473.473 0 0 0-.286-.902c-1.445.457-4.209 1.86-4.326 1.92a.473.473 0 0 0 .215.894z"/>
            <path d="M966.89 78.616a.473.473 0 0 0-.473.473v18.435a1.42 1.42 0 0 1-1.418 1.418h-11.345v-1.088c.689-.24 2.484-.803 4.254-.803 4.118 0 6.914.912 6.942.921a.475.475 0 0 0 .621-.448V76.725a.472.472 0 0 0-.37-.461s-.37-.083-1.004-.2a.473.473 0 0 0-.171.93c.242.045.444.084.6.115v19.787c-1.071-.281-3.45-.79-6.618-.79-2.06 0-4.083.676-4.709.905-.556-.245-2.238-.905-4.272-.905-3.256 0-5.938.537-7.09.81V77.09a31.114 31.114 0 0 1 7.09-.839c1.723 0 3.201.537 3.781.78v18.601a.473.473 0 0 0 .716.405c.047-.028 4.73-2.825 8.888-4.21a.473.473 0 0 0 .323-.45v-19.38a.473.473 0 0 0-.64-.443c-3.781 1.419-7.608 3.8-7.646 3.824a.473.473 0 0 0 .5.802c.036-.023 3.365-2.094 6.84-3.492V91.04c-3.226 1.122-6.595 2.952-8.035 3.772V76.725a.473.473 0 0 0-.262-.423c-.081-.04-2.018-.995-4.465-.995-4.272 0-7.555.924-7.693.964a.472.472 0 0 0-.343.454v20.799a.475.475 0 0 0 .602.454c.033-.009 3.301-.927 7.434-.927 1.728 0 3.205.538 3.781.78v1.11h-11.344a1.42 1.42 0 0 1-1.419-1.417V79.089a.473.473 0 0 0-.945 0v18.435a2.366 2.366 0 0 0 2.364 2.363h23.635a2.366 2.366 0 0 0 2.363-2.363V79.089a.473.473 0 0 0-.473-.473z"/>
            <path d="M955.123 82.14a.474.474 0 0 0 .636.206c.028-.014 2.81-1.428 4.183-1.861a.473.473 0 0 0-.286-.902c-1.445.457-4.209 1.861-4.326 1.92a.473.473 0 0 0-.207.636zM955.123 87.812a.474.474 0 0 0 .636.206c.028-.014 2.81-1.427 4.183-1.86a.473.473 0 0 0-.286-.903c-1.445.457-4.209 1.861-4.326 1.92a.473.473 0 0 0-.207.637zM950.453 80.298c-2.92-.685-6.236.187-6.376.225a.473.473 0 0 0 .245.913c.032-.009 3.226-.849 5.915-.218a.473.473 0 1 0 .215-.92zM950.453 83.134c-2.92-.685-6.236.188-6.376.225a.473.473 0 0 0 .245.913c.032-.009 3.226-.849 5.915-.218a.473.473 0 1 0 .215-.92zM955.123 90.648a.474.474 0 0 0 .636.206c.028-.014 2.81-1.427 4.183-1.86a.473.473 0 0 0-.286-.902c-1.445.457-4.209 1.86-4.326 1.92a.473.473 0 0 0-.207.636zM950.453 85.97c-2.92-.684-6.236.187-6.376.225a.473.473 0 0 0 .245.913c.032-.009 3.226-.849 5.915-.218a.473.473 0 1 0 .215-.92zM950.453 91.642c-2.92-.684-6.236.188-6.376.226a.473.473 0 0 0 .245.913c.032-.01 3.226-.85 5.915-.218a.473.473 0 1 0 .215-.92zM950.453 88.806c-2.92-.685-6.236.187-6.376.225a.473.473 0 0 0 .245.914c.032-.01 3.226-.85 5.915-.218a.473.473 0 1 0 .215-.92z"/>
            <g>
                <path d="M1189.133 90.526l-5.742-3.315a2.37 2.37 0 0 0-3.235.867l-8.525 14.766a.473.473 0 0 0 .173.647l2.461 1.42a.473.473 0 1 0 .474-.82l-2.051-1.184.474-.82.41.237a.473.473 0 1 0 .473-.82l-.41-.237.474-.82.41.236a.473.473 0 1 0 .474-.82l-.41-.237.473-.82.41.236a.473.473 0 1 0 .474-.82l-.41-.237.473-.82 2.051 1.184a.473.473 0 1 0 .474-.82l-2.051-1.184.474-.82.41.236a.473.473 0 1 0 .473-.82l-.41-.237.474-.82.41.236a.473.473 0 1 0 .474-.82l-.41-.237.473-.82.41.237a.473.473 0 1 0 .474-.82l-.41-.237.473-.82 2.051 1.183a.473.473 0 1 0 .474-.82l-2.051-1.184.71-1.23a1.423 1.423 0 0 1 1.941-.52l5.743 3.315c.678.391.911 1.262.52 1.94l-11.84 20.51a1.423 1.423 0 0 1-1.942.52l-5.742-3.316a1.423 1.423 0 0 1-.52-1.941l2.368-4.102a.473.473 0 1 0-.82-.473l-2.368 4.101a2.37 2.37 0 0 0 .866 3.235l5.743 3.315a2.37 2.37 0 0 0 3.235-.866L1190 93.76a2.37 2.37 0 0 0-.867-3.235zM1173.34 88.517l-8.525 14.766a.473.473 0 1 0 .82.474l8.526-14.766a.473.473 0 1 0-.82-.474z"/>
                <path d="M1177.065 83.86c.021-.358-.434-.62-.734-.423l-3.535 2.334a.475.475 0 0 0-.15.158l-10.892 18.868a2.37 2.37 0 0 0 .866 3.235 2.37 2.37 0 0 0 3.235-.867l.474-.82a.473.473 0 0 0-.173-.647l-1.641-.947a.473.473 0 1 0-.474.82l1.23.71-.236.41a1.423 1.423 0 0 1-1.941.52 1.423 1.423 0 0 1-.52-1.94L1173.41 86.5l2.652-1.75-.151 2.517-.977-.564a.473.473 0 1 0-.474.82l1.23.711-9.235 15.997a.473.473 0 1 0 .82.473l9.472-16.406.004-.007a.478.478 0 0 0 .06-.211l.253-4.22zM1176.062 110.324a1.896 1.896 0 0 0-.693-2.588 1.896 1.896 0 0 0-2.588.694 1.896 1.896 0 0 0 .693 2.588 1.896 1.896 0 0 0 2.588-.694zm-2.46-1.42a.948.948 0 0 1 1.64.947.948.948 0 0 1-1.64-.948z"/>
            </g>
            <g>
                <path d="M1080.992 92.554h1.894a.473.473 0 1 0 0-.947h-1.894a.473.473 0 1 0 0 .947zM1079.097 89.712a.473.473 0 1 0 0-.947h-1.894a.473.473 0 0 0-.474.474v3.789c0 .261.212.473.474.473h1.894a.473.473 0 1 0 0-.947h-1.42v-.947h1.42a.473.473 0 1 0 0-.947h-1.42v-.948h1.42zM1086.201 101.08a.473.473 0 0 0-.473.473v1.225l-3.177 3.176a.473.473 0 1 0 .67.67l3.315-3.316a.475.475 0 0 0 .139-.334v-1.421a.473.473 0 0 0-.474-.474zM1087.957 104.06a.473.473 0 1 0-.67.67l1.895 1.894a.472.472 0 0 0 .67 0 .473.473 0 0 0 0-.67l-1.895-1.894z"/>
                <path d="M1099.936 79.293h-13.261v-.474a.473.473 0 1 0-.947 0v.474h-13.262a.474.474 0 0 0-.473.473v1.895c0 .261.211.473.473.473h24.629a.473.473 0 1 0 0-.947h-24.155v-.947h26.523v.947h-.474a.473.473 0 0 0-.473.474v16.103c0 .783-.638 1.42-1.421 1.42h-21.787c-.783 0-1.42-.637-1.42-1.42V83.555a.473.473 0 1 0-.948 0v14.209a2.37 2.37 0 0 0 2.368 2.368h21.787a2.37 2.37 0 0 0 2.368-2.368v-15.63h.473a.473.473 0 0 0 .474-.473v-1.895a.473.473 0 0 0-.474-.473z"/>
                <path d="M1095.674 89.239c0-.784-.638-1.421-1.421-1.421s-1.42.637-1.42 1.42a.473.473 0 1 0 .946 0 .474.474 0 0 1 .948 0c-.012.146-.381.541-.758.806l-.947.71a.473.473 0 0 0 .284.853h1.894a.473.473 0 1 0 0-.947h-.472c.362-.287.946-.84.946-1.421zM1090.464 89.712c.261 0 .474.213.474.474a.473.473 0 1 0 .947 0c0-.784-.638-1.421-1.421-1.421s-1.42.637-1.42 1.42v1.895c0 .784.637 1.421 1.42 1.421.783 0 1.42-.637 1.42-1.42a.473.473 0 1 0-.946 0 .474.474 0 0 1-.948 0v-1.895c0-.261.213-.474.474-.474zM1087.622 93.501a.473.473 0 0 0 .474-.473v-3.79a.474.474 0 0 0-.853-.284l-1.042 1.39-1.042-1.39a.473.473 0 0 0-.852.285v3.789a.473.473 0 1 0 .947 0v-2.369l.569.758a.49.49 0 0 0 .757 0l.569-.758v2.369c0 .261.211.473.473.473zM1080.992 90.66h1.894a.473.473 0 1 0 0-.948h-1.894a.473.473 0 1 0 0 .947z"/>
            </g>
            <g>
                <path d="M1008.543 109.482l10.975-.492a.525.525 0 0 0 .12-.022l9.967-3.13.285 1.62c-.234.38-.73 1.314-.572 2.212.181 1.027 1.084 1.252 1.646 1.152.563-.099 1.334-.619 1.153-1.646-.158-.897-.943-1.605-1.294-1.882l-.38-2.15a.469.469 0 0 0-.065-.169c-.011-.017-.027-.03-.04-.046a.468.468 0 0 0-.078-.08c-.02-.015-.041-.023-.062-.034a.445.445 0 0 0-.094-.042c-.025-.008-.05-.008-.076-.01-.024-.004-.047-.012-.072-.011l-10.974.492a.53.53 0 0 0-.12.022l-10.482 3.29a.474.474 0 0 0 .163.926zm22.641-.141c.066.372-.171.504-.384.549-.215.03-.483-.012-.549-.385-.068-.387.094-.86.266-1.22.285.279.599.669.667 1.056zm-12.098-3.153l7.285-.327-6.958 2.185-7.285.327 6.958-2.185zM1024.187 118.75a1.89 1.89 0 0 0 1.555-1.938l1.48-1.578a.473.473 0 1 0-.692-.648l-1.031 1.102a1.418 1.418 0 0 0-1.504-.751l-1.866.329a1.423 1.423 0 0 0-1.152 1.646 1.423 1.423 0 0 0-1.646-1.153l-1.866.33c-.627.11-1.079.619-1.156 1.219l-1.346-.682a.474.474 0 0 0-.428.845l1.93.977a1.89 1.89 0 0 0 2.124 1.29l.933-.165a1.896 1.896 0 0 0 1.537-2.195 1.896 1.896 0 0 0 2.195 1.537l.933-.164zm-4.06-1.207a.949.949 0 0 1-.77 1.097l-.932.165a.948.948 0 0 1-1.097-.769l-.083-.466a.474.474 0 0 1 .384-.549l1.866-.329a.474.474 0 0 1 .549.384l.082.467zm1.865-.33l-.082-.466a.474.474 0 0 1 .384-.548l1.865-.33a.474.474 0 0 1 .55.385l.081.466a.948.948 0 0 1-.768 1.098l-.933.164a.948.948 0 0 1-1.097-.768z"/>
                <path d="M1032.178 125.696a.474.474 0 0 0 .806-.5c-.013-.02-1.302-2.12-1.692-4.332l-.658-3.731c-.7-3.974-2.925-4.679-3.02-4.707a.472.472 0 0 0-.6.536l.328 1.866c.311 1.764-.4 5.625-.702 6.641-.27.911-2.02 3.938-4.1 4.305-2.082.367-4.76-1.879-5.327-2.642-.63-.852-2.62-4.238-2.93-6.002l-.33-1.865a.474.474 0 0 0-.748-.298c-.08.058-1.928 1.482-1.228 5.455l.658 3.732c.39 2.21-.102 4.626-.108 4.65a.473.473 0 0 0 .928.193c.022-.105.535-2.613.113-5.008l-.658-3.731c-.333-1.891-.034-3.077.3-3.76l.14.797c.353 2.002 2.5 5.588 3.102 6.4.768 1.036 3.756 3.452 6.252 3.012 2.496-.44 4.477-3.732 4.844-4.968.29-.97 1.08-5.074.727-7.076l-.14-.795c.547.527 1.233 1.539 1.567 3.43l.657 3.73c.423 2.395 1.763 4.576 1.82 4.668z"/>
                <path d="M1027.617 110.932l-.576-3.265a.473.473 0 1 0-.932.164l.522 2.963c-.714.463-2.995 1.802-6.312 2.387-3.317.584-5.919.107-6.748-.084l-.522-2.963a.473.473 0 1 0-.933.165l.576 3.265c.03.176.159.32.331.372.129.037 3.201.928 7.46.177 4.26-.75 6.842-2.639 6.95-2.718a.474.474 0 0 0 .184-.463z"/>
            </g>
        </g>
        <g>
            <path d="M987.378 41.21a.474.474 0 0 0-.542.394l-.445 2.806a.474.474 0 0 0 .394.542l1.871.297a.474.474 0 0 0 .542-.394l.444-2.807a.474.474 0 0 0-.393-.542l-1.871-.296zm.958 3.029l-.935-.148.296-1.871.936.148-.297 1.87z"/>
            <path d="M974.326 44.897a.474.474 0 0 0 .542-.394l1.111-7.017 20.583 3.26-1.111 7.017a.474.474 0 0 0 .935.149l1.186-7.485a.474.474 0 0 0-.394-.542l-10.76-1.704.445-2.807 2.34.37-.149.936-1.403-.222a.474.474 0 0 0-.148.935l1.87.297a.474.474 0 0 0 .543-.394l.296-1.871a.474.474 0 0 0-.394-.542l-3.274-.519a.474.474 0 0 0-.542.394l-.519 3.275-9.823-1.556a.474.474 0 0 0-.542.393l-1.186 7.485a.474.474 0 0 0 .394.542z"/>
            <path d="M992.055 41.95a.474.474 0 0 0-.541.394l-.445 2.807a.474.474 0 0 0 .394.542l1.87.296a.474.474 0 0 0 .543-.393l.444-2.807a.474.474 0 0 0-.393-.542l-1.872-.296zm.96 3.03l-.936-.148.296-1.872.936.149-.297 1.87zM996.28 63.719l-27.132-4.297a.474.474 0 0 0-.148.935l27.132 4.298a.474.474 0 0 0 .148-.936zM986.433 59.282a.474.474 0 0 0 .542-.393l1.037-6.55a.472.472 0 0 0-.084-.352c-.037-.05-.932-1.247-3.436-1.644-2.503-.396-3.724.465-3.775.502a.472.472 0 0 0-.19.309l-1.036 6.55a.474.474 0 0 0 .935.147l1.002-6.322c.317-.152 1.122-.434 2.446-.307l-.738 4.66a.474.474 0 0 0-.149.936l-.222 1.404a.474.474 0 0 0 .936.148l.222-1.403a.474.474 0 0 0 .148-.936l.738-4.66c1.301.288 1.98.807 2.232 1.046l-1.001 6.323a.474.474 0 0 0 .393.542zM977.323 59.278a.474.474 0 0 0 .394.542l10.291 1.63a.474.474 0 0 0 .148-.936l-10.291-1.63a.474.474 0 0 0-.542.394z"/>
            <path d="M971.316 57.847a.474.474 0 0 0-.148.935l4.678.741a.474.474 0 0 0 .148-.935l-.468-.074 1.778-11.227 14.97 2.37-1.779 11.228-.468-.074a.474.474 0 0 0-.148.935l4.678.741a.474.474 0 0 0 .148-.936l-.467-.074 1.778-11.227.468.075a.474.474 0 0 0 .148-.936l-23.39-3.705a.474.474 0 0 0-.148.936l.468.074-1.778 11.227-.468-.074zm21.893-8.041l1.871.296-1.778 11.227-1.871-.296 1.778-11.227zm-18.712-2.964l1.872.297-1.779 11.227-1.87-.297 1.777-11.227zM978.022 39.728a.474.474 0 0 0-.542.394l-.445 2.807a.474.474 0 0 0 .394.541l1.871.297a.474.474 0 0 0 .542-.394l.445-2.807a.474.474 0 0 0-.394-.542l-1.871-.296zm.959 3.03l-.936-.15.296-1.87.936.148-.296 1.871zM982.7 40.469a.474.474 0 0 0-.542.394l-.445 2.806a.474.474 0 0 0 .394.542l1.871.297a.474.474 0 0 0 .542-.394l.445-2.807a.474.474 0 0 0-.394-.542l-1.871-.296zm.959 3.029l-.936-.148.296-1.871.936.148-.296 1.871zM937.834 21.888a.506.506 0 0 0-.348.626l.575 2.011a.507.507 0 1 0 .976-.278l-.576-2.011a.508.508 0 0 0-.627-.348zM927.375 16.193a.503.503 0 0 0 .148-.13l3.678-4.79a.507.507 0 0 0-.805-.618l-3.55 4.623-15.24 2.012-.084-.146a.507.507 0 0 0-.879.508l.254.439a.507.507 0 0 0 .506.25l15.785-2.085a.502.502 0 0 0 .187-.063zM935.2 17.676a.507.507 0 0 0-.704.14c-.596.895-1.712 2.18-3.645 3.382l-2.276-3.94a.507.507 0 0 0-.879.506l2.274 3.938c-5.556 2.975-9.225.687-9.795.283l-1.723-2.984a.507.507 0 0 0-.879.507l1.776 3.076a.513.513 0 0 0 .125.145c.187.146 4.643 3.546 11.452-.386 2.38-1.374 3.714-2.914 4.414-3.964a.506.506 0 0 0-.14-.703zM939.292 21.614a.507.507 0 0 0-.186.693l.76 1.318a.507.507 0 1 0 .88-.507l-.762-1.318a.507.507 0 0 0-.692-.186z"/>
            <path d="M936.31 2.247a.507.507 0 0 0-.185.693l.084.145-4.02 5.213-.458-.794 4.475-5.827a.507.507 0 0 0-.469-.812l-15.785 2.084a.508.508 0 0 0-.336.194L909.92 15.77a.507.507 0 0 0 .47.812l15.784-2.084a.502.502 0 0 0 .336-.194l3.506-4.566a.507.507 0 1 0-.804-.618l-3.38 4.4-14.36 1.896 8.822-11.49 14.362-1.896-3.84 5-5.872.985a1.211 1.211 0 0 0-.123-.307c-.427-.739-1.533-.872-2.518-.303-.986.569-1.423 1.594-.997 2.332.427.74 1.533.873 2.519.304.44-.254.762-.6.956-.97l6.094-1.022.813 1.407 5.436 9.416a1.52 1.52 0 0 0-.164 1.745c.42.726 1.352.976 2.079.557.727-.42.977-1.352.557-2.08a1.52 1.52 0 0 0-1.593-.729l-1.44-2.494c.712-1.68.432-3.209.42-3.277a.513.513 0 0 0-.06-.157l-1.775-3.076a.507.507 0 1 0-.879.508l1.729 2.994c.031.23.099.957-.112 1.834l-3.147-5.45 4.482-5.813a.507.507 0 0 0 .037-.563l-.253-.44a.507.507 0 0 0-.693-.185zm-12.994 6.916c-.536.31-1.029.247-1.132.068-.104-.18.088-.637.625-.946.536-.31 1.029-.248 1.132-.068.104.179-.088.637-.625.946zm15.215 11.133a.508.508 0 1 1-.507-.88.508.508 0 0 1 .507.88zM940.974 20.5a.507.507 0 1 0-.729.706l1.454 1.504a.507.507 0 0 0 .729-.706l-1.454-1.504z"/>
            <g>
                <path d="M635.123 14.976a.474.474 0 0 0 .636.206c.028-.014 2.81-1.427 4.183-1.86a.473.473 0 0 0-.286-.903c-1.445.457-4.209 1.861-4.326 1.92a.473.473 0 0 0-.207.637zM635.545 9.561a.472.472 0 0 0 .214-.051c.028-.014 2.81-1.428 4.183-1.861a.473.473 0 0 0-.286-.902c-1.445.457-4.209 1.86-4.326 1.92a.473.473 0 0 0 .215.894z"/>
                <path d="M646.89 8.616a.473.473 0 0 0-.473.473v18.435a1.42 1.42 0 0 1-1.418 1.418h-11.345v-1.088c.689-.24 2.484-.803 4.254-.803 4.118 0 6.914.912 6.942.921a.475.475 0 0 0 .621-.448V6.725a.472.472 0 0 0-.37-.461s-.37-.083-1.004-.2a.473.473 0 0 0-.171.93c.242.045.444.084.6.115v19.787c-1.071-.281-3.45-.79-6.618-.79-2.06 0-4.083.676-4.709.905-.556-.245-2.238-.905-4.272-.905-3.256 0-5.938.537-7.09.81V7.09a31.114 31.114 0 0 1 7.09-.839c1.723 0 3.201.537 3.781.78v18.601a.473.473 0 0 0 .716.405c.047-.028 4.73-2.825 8.888-4.21a.473.473 0 0 0 .323-.45V1.999a.473.473 0 0 0-.64-.443c-3.781 1.419-7.608 3.8-7.646 3.824a.473.473 0 0 0 .5.802c.036-.023 3.365-2.094 6.84-3.492V21.04c-3.226 1.122-6.595 2.952-8.035 3.772V6.725a.473.473 0 0 0-.262-.423c-.081-.04-2.018-.995-4.465-.995-4.272 0-7.555.924-7.693.964a.472.472 0 0 0-.343.454v20.799a.475.475 0 0 0 .602.454c.033-.009 3.301-.927 7.434-.927 1.728 0 3.205.538 3.781.78v1.11h-11.344a1.42 1.42 0 0 1-1.419-1.417V9.089a.473.473 0 0 0-.945 0v18.435a2.366 2.366 0 0 0 2.364 2.363h23.635a2.366 2.366 0 0 0 2.363-2.363V9.089a.473.473 0 0 0-.473-.473z"/>
                <path d="M635.123 12.14a.474.474 0 0 0 .636.206c.028-.014 2.81-1.428 4.183-1.861a.473.473 0 0 0-.286-.902c-1.445.457-4.209 1.861-4.326 1.92a.473.473 0 0 0-.207.636zM635.123 17.812a.474.474 0 0 0 .636.206c.028-.014 2.81-1.427 4.183-1.86a.473.473 0 0 0-.286-.903c-1.445.457-4.209 1.861-4.326 1.92a.473.473 0 0 0-.207.637zM630.453 10.298c-2.92-.685-6.236.187-6.376.225a.473.473 0 0 0 .245.913c.032-.009 3.226-.849 5.915-.218a.473.473 0 1 0 .215-.92zM630.453 13.134c-2.92-.685-6.236.188-6.376.225a.473.473 0 0 0 .245.913c.032-.009 3.226-.849 5.915-.218a.473.473 0 1 0 .215-.92zM635.123 20.648a.474.474 0 0 0 .636.206c.028-.014 2.81-1.427 4.183-1.86a.473.473 0 0 0-.286-.902c-1.445.457-4.209 1.86-4.326 1.92a.473.473 0 0 0-.207.636zM630.453 15.97c-2.92-.684-6.236.187-6.376.225a.473.473 0 0 0 .245.913c.032-.009 3.226-.849 5.915-.218a.473.473 0 1 0 .215-.92zM630.453 21.642c-2.92-.684-6.236.188-6.376.226a.473.473 0 0 0 .245.913c.032-.01 3.226-.85 5.915-.218a.473.473 0 1 0 .215-.92zM630.453 18.806c-2.92-.685-6.236.187-6.376.225a.473.473 0 0 0 .245.914c.032-.01 3.226-.85 5.915-.218a.473.473 0 1 0 .215-.92z"/>
            </g>
            <g>
                <path d="M869.133 20.526l-5.742-3.315a2.37 2.37 0 0 0-3.235.867l-8.525 14.766a.473.473 0 0 0 .173.647l2.461 1.42a.473.473 0 1 0 .474-.82l-2.051-1.184.474-.82.41.237a.473.473 0 1 0 .473-.82l-.41-.237.474-.82.41.236a.473.473 0 1 0 .474-.82l-.41-.237.473-.82.41.236a.473.473 0 1 0 .474-.82l-.41-.237.473-.82 2.051 1.184a.473.473 0 1 0 .474-.82l-2.051-1.184.474-.82.41.236a.473.473 0 1 0 .473-.82l-.41-.237.474-.82.41.236a.473.473 0 1 0 .474-.82l-.41-.237.473-.82.41.237a.473.473 0 1 0 .474-.82l-.41-.237.473-.82 2.051 1.183a.473.473 0 1 0 .474-.82l-2.051-1.184.71-1.23a1.423 1.423 0 0 1 1.941-.52l5.743 3.315c.678.391.911 1.262.52 1.94l-11.84 20.51a1.423 1.423 0 0 1-1.942.52L849.656 41a1.423 1.423 0 0 1-.52-1.941l2.368-4.102a.473.473 0 1 0-.82-.473l-2.368 4.101a2.37 2.37 0 0 0 .866 3.235l5.743 3.315a2.37 2.37 0 0 0 3.235-.866L870 23.76a2.37 2.37 0 0 0-.867-3.235zM853.34 18.517l-8.525 14.766a.473.473 0 1 0 .82.474l8.526-14.766a.473.473 0 1 0-.82-.474z"/>
                <path d="M857.065 13.86c.021-.358-.434-.62-.734-.423l-3.535 2.334a.475.475 0 0 0-.15.158l-10.892 18.868a2.37 2.37 0 0 0 .866 3.235 2.37 2.37 0 0 0 3.235-.867l.474-.82a.473.473 0 0 0-.173-.647l-1.641-.947a.473.473 0 1 0-.474.82l1.23.71-.236.41a1.423 1.423 0 0 1-1.941.52 1.423 1.423 0 0 1-.52-1.94L853.41 16.5l2.652-1.75-.151 2.517-.977-.564a.473.473 0 1 0-.474.82l1.23.711-9.235 15.997a.473.473 0 1 0 .82.473l9.472-16.406.004-.007a.478.478 0 0 0 .06-.211l.253-4.22zM856.062 40.324a1.896 1.896 0 0 0-.693-2.588 1.896 1.896 0 0 0-2.588.694 1.896 1.896 0 0 0 .693 2.588 1.896 1.896 0 0 0 2.588-.694zm-2.46-1.42a.948.948 0 0 1 1.64.947.948.948 0 0 1-1.64-.948zM864.33 44.003a.473.473 0 1 0-.474.82l3.28 1.895a.473.473 0 0 0 .648-.173l1.42-2.461a2.37 2.37 0 0 0-.866-3.235l-1.64-.947a2.37 2.37 0 0 0-3.236.866l-2.841 4.923a2.37 2.37 0 0 0 .866 3.234l1.641.948a2.37 2.37 0 0 0 3.235-.867l.474-.82a.473.473 0 1 0-.82-.474l-.474.82a1.423 1.423 0 0 1-1.941.52l-1.64-.947a1.423 1.423 0 0 1-.521-1.94l2.842-4.923a1.423 1.423 0 0 1 1.94-.52l1.641.947c.679.392.912 1.263.52 1.941l-1.184 2.051-2.87-1.658z"/>
            </g>
            <g>
                <path d="M760.992 22.554h1.894a.473.473 0 1 0 0-.947h-1.894a.473.473 0 1 0 0 .947zM759.097 19.712a.473.473 0 1 0 0-.947h-1.894a.473.473 0 0 0-.474.474v3.789c0 .261.212.473.474.473h1.894a.473.473 0 1 0 0-.947h-1.42v-.947h1.42a.473.473 0 1 0 0-.947h-1.42v-.948h1.42zM766.201 31.08a.473.473 0 0 0-.473.473v1.225l-3.177 3.176a.473.473 0 1 0 .67.67l3.315-3.316a.475.475 0 0 0 .139-.334v-1.421a.473.473 0 0 0-.474-.474zM767.957 34.06a.473.473 0 1 0-.67.67l1.895 1.894a.472.472 0 0 0 .67 0 .473.473 0 0 0 0-.67l-1.895-1.894z"/>
                <path d="M779.936 9.293h-13.261v-.474a.473.473 0 1 0-.947 0v.474h-13.262a.474.474 0 0 0-.473.473v1.895c0 .261.211.473.473.473h24.629a.473.473 0 1 0 0-.947H752.94v-.947h26.523v.947h-.474a.473.473 0 0 0-.473.474v16.103c0 .783-.638 1.42-1.421 1.42h-21.787c-.783 0-1.42-.637-1.42-1.42V13.555a.473.473 0 1 0-.948 0v14.209a2.37 2.37 0 0 0 2.368 2.368h21.787a2.37 2.37 0 0 0 2.368-2.368v-15.63h.473a.473.473 0 0 0 .474-.473V9.766a.473.473 0 0 0-.474-.473z"/>
                <path d="M775.674 19.239c0-.784-.638-1.421-1.421-1.421s-1.42.637-1.42 1.42a.473.473 0 1 0 .946 0 .474.474 0 0 1 .948 0c-.012.146-.381.541-.758.806l-.947.71a.473.473 0 0 0 .284.853h1.894a.473.473 0 1 0 0-.947h-.472c.362-.287.946-.84.946-1.421zM770.464 19.712c.261 0 .474.213.474.474a.473.473 0 1 0 .947 0c0-.784-.638-1.421-1.421-1.421s-1.42.637-1.42 1.42v1.895c0 .784.637 1.421 1.42 1.421.783 0 1.42-.637 1.42-1.42a.473.473 0 1 0-.946 0 .474.474 0 0 1-.948 0v-1.895c0-.261.213-.474.474-.474zM767.622 23.501a.473.473 0 0 0 .474-.473v-3.79a.474.474 0 0 0-.853-.284l-1.042 1.39-1.042-1.39a.473.473 0 0 0-.852.285v3.789a.473.473 0 1 0 .947 0v-2.369l.569.758a.49.49 0 0 0 .757 0l.569-.758v2.369c0 .261.211.473.473.473zM760.992 20.66h1.894a.473.473 0 1 0 0-.948h-1.894a.473.473 0 1 0 0 .947z"/>
            </g>
            <g>
                <path d="M1164.48 53.036a.473.473 0 0 0 .587-.323c1.402-4.818 5.89-8.183 10.915-8.183.804 0 1.604.084 2.382.25-.017.682.278 1.15.467 1.45l.133.212c0 1.698-.348 1.975-.344 1.976-.768 0-2.027.686-2.501 1.57-.29.542-.267 1.116.066 1.616.228.343.425.724.615 1.092.403.78.85 1.645 1.55 1.645.149 0 .309-.04.482-.126.553-.276.949-1.061 1.331-1.82.169-.334.417-.825.563-.981.481.065.716.5 1.034 1.189.234.507.476 1.03.951 1.268.8.4 3.433-.02 4.887-.637a.474.474 0 0 0 .272-.56 12.386 12.386 0 0 0-7.224-8.177.474.474 0 1 0-.359.876 11.443 11.443 0 0 1 6.55 7.14c-1.474.52-3.366.677-3.702.51-.178-.089-.357-.476-.515-.817-.33-.715-.783-1.695-1.937-1.746-.597-.036-.933.65-1.366 1.509-.254.503-.637 1.263-.942 1.413-.176-.041-.525-.717-.733-1.12-.193-.374-.411-.797-.67-1.183-.139-.21-.145-.408-.018-.644.325-.607 1.302-1.07 1.666-1.07.856 0 1.29-.983 1.29-2.923 0-.276-.14-.5-.277-.718-.201-.317-.408-.647-.285-1.208a.474.474 0 0 0-.347-.56 12.364 12.364 0 0 0-3.019-.373c-5.443 0-10.305 3.646-11.825 8.866a.473.473 0 0 0 .323.587z"/>
                <path d="M1188.179 54.193a.474.474 0 0 0-.938.13c.072.52.108 1.05.108 1.574 0 6.222-5.025 11.292-11.23 11.366-1.685-1.076-3.263-2.393-2.56-4.034 1.263-2.947.088-4.046-.414-4.515l-.095-.09a2.24 2.24 0 0 0-.448-.326c-.346-.208-.44-.264-.254-.822.124-.371.288-.544.476-.745.439-.463.773-.924.773-2.263 0-.78-.395-1.401-1.085-1.706-.782-.346-1.826-.223-2.378.278-.345.313-.461.74-.318 1.17.338 1.01-.434 2.472-1.876 3.554-.381.286-.495.154-.563.076-.423-.487-.39-1.873-.043-2.22.232-.233.301-.53.184-.794-.383-.87-2.83-.803-3.316-.78a.474.474 0 0 0-.448.415c-.06.49-.086.92-.086 1.436a12.286 12.286 0 0 0 9.35 11.955.474.474 0 0 0 .228-.92 11.34 11.34 0 0 1-8.594-11.95c.801-.001 1.482.092 1.829.198-.543.848-.484 2.516.18 3.281.476.549 1.167.571 1.848.06 1.82-1.364 2.685-3.175 2.206-4.61-.016-.048-.03-.092.056-.17.25-.227.884-.323 1.358-.113.35.155.521.43.521.84 0 1.069-.215 1.297-.514 1.613-.22.234-.496.525-.686 1.095-.426 1.28.257 1.69.665 1.934a1.465 1.465 0 0 1 .383.296c.417.389 1.191 1.114.19 3.45-1.134 2.647 1.792 4.494 3.041 5.282a.478.478 0 0 0 .253.073c6.79 0 12.314-5.524 12.314-12.314 0-.568-.039-1.14-.117-1.704z"/>
                <path d="M1183.897 66.539a13.15 13.15 0 0 1-7.915 2.62c-7.312 0-13.261-5.95-13.261-13.262a.474.474 0 0 0-.947 0c0 7.676 6.119 13.945 13.735 14.197v1.432a.474.474 0 0 0 .947 0v-1.44a14.069 14.069 0 0 0 8.007-2.788.474.474 0 0 0-.566-.76z"/>
            </g>
            <g>
                <path d="M1085.145 64.422h2.842a.474.474 0 0 0 0-.947h-2.842a.474.474 0 0 0 0 .947zM1085.145 67.264h5.684a.474.474 0 0 0 0-.947h-5.684a.474.474 0 0 0 0 .947zM1086.995 56.933a.959.959 0 0 1 .43.445.473.473 0 1 0 .859-.4 1.913 1.913 0 0 0-.859-.89.475.475 0 0 0-.43.845zM1095.091 63.948a.473.473 0 0 0-.473-.473h-4.736a.474.474 0 0 0 0 .947h4.736a.473.473 0 0 0 .473-.474zM1086.995 48.42a.955.955 0 0 1 .43.446.473.473 0 1 0 .859-.4 1.908 1.908 0 0 0-.859-.89.474.474 0 0 0-.43.844z"/>
                <path d="M1083.546 51.545c-.346.338-.769.96-.769 1.984 0 1.023.423 1.645.769 1.984a3.765 3.765 0 0 0 .178 4.776v1.765a.474.474 0 0 0 .948 0v-.987a3.756 3.756 0 0 0 1.894.513c2.09 0 3.79-1.7 3.79-3.789 0-2.089-1.7-3.789-3.79-3.789-.893 0-1.714.313-2.362.832-.204-.201-.48-.602-.48-1.305 0-.704.276-1.104.48-1.306.648.52 1.469.832 2.362.832 2.09 0 3.79-1.7 3.79-3.789 0-2.089-1.7-3.789-3.79-3.789a3.76 3.76 0 0 0-1.894.513v-1.46h12.591l4.598 4.597a.472.472 0 0 0 .67 0 .473.473 0 0 0 0-.67l-4.737-4.736a.472.472 0 0 0-.335-.138h-13.261a.474.474 0 0 0-.474.473v2.712a3.769 3.769 0 0 0-.178 4.777zm3.02-5.12a2.845 2.845 0 0 1 2.842 2.841 2.845 2.845 0 0 1-2.842 2.842 2.845 2.845 0 0 1-2.842-2.842 2.845 2.845 0 0 1 2.842-2.842zm0 8.525a2.845 2.845 0 0 1 2.842 2.841 2.845 2.845 0 0 1-2.842 2.842 2.845 2.845 0 0 1-2.842-2.842 2.845 2.845 0 0 1 2.842-2.841zM1099.828 63.948a.473.473 0 0 0-.474-.473h-2.842a.473.473 0 1 0 0 .947h2.842a.473.473 0 0 0 .474-.474z"/>
                <path d="M1099.354 54.95h-3.79a.473.473 0 1 0 0 .947h3.79a.473.473 0 1 0 0-.947zM1092.723 67.264h4.736a.473.473 0 1 0 0-.947h-4.736a.474.474 0 0 0 0 .947z"/>
                <path d="M1104.09 50.213h-4.736c-.783 0-1.42-.637-1.42-1.42v-2.369a.473.473 0 1 0-.948 0v2.369a2.37 2.37 0 0 0 2.368 2.368h4.263v18.47c0 .798-.624 1.422-1.421 1.422h-19.892c-.784 0-1.421-.638-1.421-1.421V45.95c0-.784.637-1.421 1.42-1.421a.474.474 0 0 0 0-.947 2.37 2.37 0 0 0-2.368 2.368v23.68a2.37 2.37 0 0 0 2.369 2.369h19.892a2.343 2.343 0 0 0 2.368-2.368V50.687a.474.474 0 0 0-.474-.474z"/>
                <path d="M1090.829 61.107c0 .261.212.473.473.473h7.105a.473.473 0 1 0 0-.947h-7.105a.474.474 0 0 0-.473.474zM1091.776 58.265c0 .261.212.474.474.474h2.368a.473.473 0 1 0 0-.948h-2.368a.474.474 0 0 0-.474.474zM1098.407 58.739a.473.473 0 1 0 0-.948h-1.895a.473.473 0 1 0 0 .948h1.895zM1093.67 54.95h-1.894a.474.474 0 0 0 0 .947h1.894a.473.473 0 1 0 0-.947z"/>
            </g>
            <g>
                <path d="M1135.022 13.9a.473.473 0 0 0-.473-.473h-2.836a.473.473 0 0 0 0 .946h2.836c.26 0 .473-.212.473-.473zM1133.13 1.61V-.754a.473.473 0 0 0-.945 0V1.61a2.366 2.366 0 0 0 2.364 2.363h4.254v8.982a.473.473 0 0 0 .946 0V3.5a.473.473 0 0 0-.473-.473h-4.727a1.42 1.42 0 0 1-1.418-1.418zM1134.549 7.755h-3.782a.473.473 0 0 0 0 .945h3.782a.473.473 0 0 0 0-.945zM1129.35 8.228a.473.473 0 0 0-.473-.473h-2.837a.473.473 0 0 0 0 .945h2.837c.26 0 .472-.212.472-.472zM1126.04 10.591a.473.473 0 0 0 0 .945h.946a.473.473 0 0 0 0-.945h-.946zM1126.04 5.864h4.727a.473.473 0 0 0 0-.945h-4.727a.473.473 0 0 0 0 .945zM1128.876 11.536h4.727a.473.473 0 0 0 0-.945h-4.727a.473.473 0 0 0 0 .945zM1131.713 16.263a.473.473 0 0 0 0 .946h.945a.473.473 0 0 0 0-.946h-.945zM1129.822 13.427h-3.782a.473.473 0 0 0 0 .946h3.782a.473.473 0 0 0 0-.946zM1129.822 16.263h-3.782a.473.473 0 0 0 0 .946h3.782a.473.473 0 0 0 0-.946zM1141.076 15.881l-.945-.945a1.776 1.776 0 0 0-2.56 0l-6.193 6.193a.473.473 0 0 0-.138.334V24.3c0 .261.212.473.473.473h2.836c.125 0 .246-.05.334-.139l6.193-6.193c.753-.753.753-1.806 0-2.559zm-4.115 1.003l.75.75-4.108 4.106-.75-.75 4.108-4.106zm-4.776 6.943v-2.168l2.168 2.168h-2.168zm2.837-.669l-.75-.75 4.107-4.106.75.75-4.107 4.106zm5.386-5.386l-.611.611-2.168-2.168.611-.611c.374-.373.847-.375 1.223 0l.945.945c.382.383.382.84 0 1.223z"/>
                <path d="M1129.822 23.827h-12.29a1.42 1.42 0 0 1-1.418-1.419V-1.226a1.42 1.42 0 0 1 1.418-1.419h14.93l4.589 4.589a.472.472 0 1 0 .668-.668l-4.727-4.727a.472.472 0 0 0-.334-.139h-15.126a2.366 2.366 0 0 0-2.364 2.364v23.634a2.366 2.366 0 0 0 2.364 2.364h12.29a.473.473 0 0 0 0-.945z"/>
                <path d="M1129.822 19.1h-3.782a.473.473 0 0 0 0 .945h3.782a.473.473 0 0 0 0-.945zM1123.677 5.391a.473.473 0 0 0-.473-.472h-2.836a.473.473 0 0 0-.473.472v2.837c0 .26.212.472.473.472h2.836c.261 0 .473-.212.473-.472V5.39zm-.946 2.364h-1.89V5.864h1.89v1.89zM1120.368 20.045h2.836c.261 0 .473-.212.473-.473v-2.836a.473.473 0 0 0-.473-.473h-2.836a.473.473 0 0 0-.473.473v2.836c0 .261.212.473.473.473zm.473-2.836h1.89v1.89h-1.89v-1.89zM1120.98 14.234a.473.473 0 0 0 .727-.072l1.89-2.836a.473.473 0 0 0-.786-.525l-1.57 2.357-.539-.538a.472.472 0 1 0-.668.669l.945.945z"/>
            </g>
            <g>
                <path d="M688.543 39.482l10.975-.492a.525.525 0 0 0 .12-.022l9.967-3.13.285 1.62c-.234.38-.73 1.314-.572 2.212.181 1.027 1.084 1.252 1.646 1.152.563-.099 1.334-.619 1.153-1.646-.158-.897-.943-1.605-1.294-1.882l-.38-2.15a.469.469 0 0 0-.065-.169c-.011-.017-.027-.03-.04-.046a.468.468 0 0 0-.078-.08c-.02-.015-.041-.023-.062-.034a.445.445 0 0 0-.094-.042c-.025-.008-.05-.008-.076-.01-.024-.004-.047-.012-.072-.011l-10.974.492a.53.53 0 0 0-.12.022l-10.482 3.29a.474.474 0 0 0 .163.926zm22.641-.141c.066.372-.171.504-.384.549-.215.03-.483-.012-.549-.385-.068-.387.094-.86.266-1.22.285.279.599.669.667 1.056zm-12.098-3.153l7.285-.327-6.958 2.185-7.285.327 6.958-2.185zM704.187 48.75a1.89 1.89 0 0 0 1.555-1.938l1.48-1.578a.473.473 0 1 0-.692-.648l-1.031 1.102a1.418 1.418 0 0 0-1.504-.751l-1.866.329a1.423 1.423 0 0 0-1.152 1.646 1.423 1.423 0 0 0-1.646-1.153l-1.866.33c-.627.11-1.079.619-1.156 1.219l-1.346-.682a.474.474 0 0 0-.428.845l1.93.977a1.89 1.89 0 0 0 2.124 1.29l.933-.165a1.896 1.896 0 0 0 1.537-2.195 1.896 1.896 0 0 0 2.195 1.537l.933-.164zm-4.06-1.207a.949.949 0 0 1-.77 1.097l-.932.165a.948.948 0 0 1-1.097-.769l-.083-.466a.474.474 0 0 1 .384-.549l1.866-.329a.474.474 0 0 1 .549.384l.082.467zm1.865-.33l-.082-.466a.474.474 0 0 1 .384-.548l1.865-.33a.474.474 0 0 1 .55.385l.081.466a.948.948 0 0 1-.768 1.098l-.933.164a.948.948 0 0 1-1.097-.768zM710.539 57.612a.5.5 0 0 0-.055-.087c-.012-.015-.017-.033-.03-.047-.006-.006-.015-.008-.02-.015a.462.462 0 0 0-.082-.055c-.026-.017-.051-.033-.08-.044-.01-.003-.015-.01-.025-.013l-2.03-.603a.473.473 0 0 0-.462.11l-2.47 2.36a.474.474 0 0 0-.14.425l.292 1.654c-.238.27-.84.847-1.746 1.007-.898.158-1.667-.179-1.986-.35l-.291-1.653a.474.474 0 0 0-.276-.352l-3.128-1.372a.473.473 0 0 0-.472.053l-1.701 1.262c-.008.006-.011.014-.018.02a.419.419 0 0 0-.065.072c-.02.024-.04.048-.053.076-.004.008-.012.014-.016.022-.008.019-.007.038-.012.058a.487.487 0 0 0-.021.096c-.003.03 0 .059.004.089.003.03.007.058.016.087.01.032.025.06.041.09.01.017.013.036.025.053.006.007.015.011.02.018.02.024.046.044.072.064.025.02.048.04.076.054.008.004.014.011.022.015l3.128 1.373a.472.472 0 0 0 .624-.244.473.473 0 0 0-.243-.624l-2.38-1.044.824-.612 2.644 1.16.285 1.616a.472.472 0 0 0 .195.306c.051.036 1.276.877 2.85.6 1.575-.278 2.438-1.488 2.474-1.54.072-.102.1-.23.078-.353l-.285-1.616 2.088-1.994.984.292-1.88 1.796a.473.473 0 1 0 .655.685l2.47-2.36c.006-.006.009-.014.015-.02.023-.025.039-.053.056-.081.016-.027.032-.052.042-.08.004-.01.011-.016.014-.026.006-.02.003-.041.006-.062.004-.031.01-.06.008-.092a.45.45 0 0 0-.016-.093c-.007-.028-.013-.054-.025-.08z"/>
                <path d="M712.178 55.696a.474.474 0 0 0 .806-.5c-.013-.02-1.302-2.12-1.692-4.332l-.658-3.731c-.7-3.974-2.925-4.679-3.02-4.707a.472.472 0 0 0-.6.536l.328 1.866c.311 1.764-.4 5.625-.702 6.641-.27.911-2.02 3.938-4.1 4.305-2.082.367-4.76-1.879-5.327-2.642-.63-.852-2.62-4.238-2.93-6.002l-.33-1.865a.474.474 0 0 0-.748-.298c-.08.058-1.928 1.482-1.228 5.455l.658 3.732c.39 2.21-.102 4.626-.108 4.65a.473.473 0 0 0 .928.193c.022-.105.535-2.613.113-5.008l-.658-3.731c-.333-1.891-.034-3.077.3-3.76l.14.797c.353 2.002 2.5 5.588 3.102 6.4.768 1.036 3.756 3.452 6.252 3.012 2.496-.44 4.477-3.732 4.844-4.968.29-.97 1.08-5.074.727-7.076l-.14-.795c.547.527 1.233 1.539 1.567 3.43l.657 3.73c.423 2.395 1.763 4.576 1.82 4.668z"/>
                <path d="M702.98 51.985c-.013.016-.308.4-1.016.524-.699.123-1.105-.127-1.133-.145a.473.473 0 0 0-.538.78c.072.05.74.49 1.835.298 1.095-.193 1.572-.836 1.623-.908a.47.47 0 0 0-.112-.652.477.477 0 0 0-.66.103zM717.716 60.16c-.063-.117-1.598-2.866-5.706-3.156a.473.473 0 1 0-.066.945c3.568.252 4.886 2.565 4.94 2.662a.473.473 0 1 0 .832-.451zM707.617 40.932l-.576-3.265a.473.473 0 1 0-.932.164l.522 2.963c-.714.463-2.995 1.802-6.312 2.387-3.317.584-5.919.107-6.748-.084l-.522-2.963a.473.473 0 1 0-.933.165l.576 3.265c.03.176.159.32.331.372.129.037 3.201.928 7.46.177 4.26-.75 6.842-2.639 6.95-2.718a.474.474 0 0 0 .184-.463zM694.06 60.17c-3.76 1.677-4.262 4.785-4.281 4.916a.474.474 0 1 0 .936.139c.004-.027.44-2.723 3.73-4.19a.474.474 0 0 0-.385-.866z"/>
            </g>
            <g>
                <path d="M1034.9 15.623c.09.245.361.372.607.283l1.78-.648a.474.474 0 0 0 .283-.607l-.972-2.67a.474.474 0 0 0-.607-.284l-1.78.648a.474.474 0 0 0-.283.607l.972 2.67zm.08-2.55l.89-.324.648 1.78-.89.325-.648-1.78zM1033.563 10.565l1.78-.648a.474.474 0 0 0 .283-.607l-.971-2.67a.474.474 0 0 0-.608-.283l-1.78.648a.474.474 0 0 0-.283.607l.972 2.67c.09.246.361.373.607.283zm-.527-2.832l.89-.324.648 1.78-.89.324-.648-1.78z"/>
                <path d="M1029.075 8.598l5.039-6.214 7.854 1.522a.47.47 0 0 0 .555-.375.473.473 0 0 0-.374-.555l-7.87-1.525-1.043-2.863 2.225-.81.324.89-1.335.486a.474.474 0 0 0 .324.89l1.78-.648a.474.474 0 0 0 .283-.607l-.648-1.78a.474.474 0 0 0-.607-.283l-3.115 1.134a.474.474 0 0 0-.283.607l1.204 3.308-5.05 6.228a.473.473 0 1 0 .737.595zM1030.166 17.85a.474.474 0 0 0 .283-.607l-.972-2.67a.474.474 0 0 0-.607-.284l-1.78.648a.474.474 0 0 0-.283.607l.324.89a.474.474 0 0 0 .89-.324l-.162-.445.89-.324.81 2.226c.09.245.362.372.607.283zM1035.388 22.501l-4.698-12.906a.474.474 0 0 0-.89.324l4.697 12.906a.474.474 0 0 0 .89-.324z"/>
                <path d="M1033.972 25.537l15.132-5.508a.474.474 0 0 0-.324-.89l-4.005 1.458-1.62-4.45.445-.163a.474.474 0 0 0-.324-.89l-8.011 2.916a.474.474 0 0 0 .324.89l.445-.162 1.62 4.45-4.006 1.459a.474.474 0 0 0 .324.89zm7.04-5.586a.474.474 0 0 0-.325-.89l-.648-1.78 2.226-.81 1.62 4.45-2.226.81-.648-1.78zm-4.088-1.537l2.225-.81.648 1.78a.474.474 0 0 0 .324.89l.648 1.78-2.225.81-1.62-4.45zM1049.669 13.271l-1.78.648a.474.474 0 0 0-.284.607l.972 2.67c.09.246.362.373.607.284l1.78-.648a.474.474 0 0 0 .284-.607l-.972-2.67a.474.474 0 0 0-.607-.284zm.527 2.833l-.89.324-.649-1.78.89-.324.649 1.78zM1047.725 7.93l-1.78.649a.474.474 0 0 0-.283.607l.971 2.67c.09.246.362.372.608.283l1.78-.648a.474.474 0 0 0 .283-.607l-.972-2.67a.474.474 0 0 0-.607-.283zm.527 2.833l-.89.324-.648-1.78.89-.324.648 1.78zM1051.208 20.271l-18.692 6.804a.474.474 0 0 0 .324.89l18.692-6.804a.474.474 0 0 0-.324-.89z"/>
                <path d="M1048.937 2.953a.474.474 0 0 0-.283.607l.162.445-4.895 1.782a.474.474 0 0 0 .324.89l4.895-1.782 5.346 14.687a.474.474 0 0 0 .89-.324l-5.832-16.022a.474.474 0 0 0-.607-.283zM1039.35 14.003c.09.245.362.372.608.283l1.78-.648a.474.474 0 0 0 .283-.607l-.972-2.67a.474.474 0 0 0-.607-.284l-1.78.648a.474.474 0 0 0-.283.607l.972 2.67zm.08-2.55l.89-.323.649 1.78-.89.324-.648-1.78zM1031.503 22.907c-.021-.058-2.131-5.776-4.331-4.976-2.2.801-.14 6.538-.12 6.596a2.372 2.372 0 0 0 2.574 1.533l.827 2.27a.474.474 0 0 0 .89-.324l-.827-2.27a2.372 2.372 0 0 0 .987-2.829zm-1.74 2.145a1.423 1.423 0 0 1-1.82-.849c-.807-2.217-1.187-5.112-.447-5.381.74-.27 2.31 2.192 3.117 4.41a1.423 1.423 0 0 1-.85 1.82zM1046.96 18.29l-4.86-13.352a.474.474 0 0 0-.89.324l4.859 13.352a.474.474 0 0 0 .89-.324zM1038.014 8.945l1.78-.648a.474.474 0 0 0 .283-.607l-.972-2.67a.474.474 0 0 0-.607-.283l-1.78.648a.474.474 0 0 0-.283.607l.972 2.67c.09.246.361.373.607.283zm-.527-2.832l.89-.324.648 1.78-.89.324-.648-1.78zM1025.23 18.134a.474.474 0 0 0 .283-.607l-1.296-3.56 4.896-1.782a.474.474 0 0 0-.324-.89l-4.896 1.782-.162-.445a.474.474 0 0 0-.89.324l1.782 4.895c.09.246.361.373.607.283z"/>
            </g>
        </g>
    </g>
</svg>
